<svg width="684" height="1795" viewBox="0 0 684 1795" fill="none" xmlns="http://www.w3.org/2000/svg">
<g clip-path="url(#clip0_372_484)">
<path d="M0.5 103H584C639.228 103 684 147.772 684 203V203C684 258.228 639.228 303 584 303H99.5C44.5477 303 0 347.548 0 402.5V402.5C0 457.452 44.5477 502 99.5 502H584C639.228 502 684 546.772 684 602V602C684 657.228 639.228 702 584 702H100C44.7715 702 0 746.772 0 802V802C0 857.228 44.7715 902 100 902H584C639.228 902 684 946.772 684 1002V1002C684 1057.23 639.228 1102 584 1102H100C44.7715 1102 0 1147.27 0 1202.5V1202.5C0 1257.73 44.7715 1303 100 1303H584C639.228 1303 684 1347.77 684 1403V1403C684 1458.23 639.228 1503 584 1503H100C44.7715 1503 0 1547.77 0 1603V1603C0 1658.23 44.7715 1703 100 1703H571" stroke="#003A65" stroke-width="2" stroke-dasharray="6 6"/>
</g>
<defs>
<clipPath id="clip0_372_484">
<rect width="684" height="1795" fill="white"/>
</clipPath>
</defs>
</svg>
