<svg width="302" height="3145" viewBox="0 0 302 3145" fill="none" xmlns="http://www.w3.org/2000/svg">
<path d="M1 63H216C262.944 63 301 101.056 301 148V148C301 194.944 262.944 233 216 233H86C39.0558 233 1 271.056 1 318V318C1 364.944 39.0558 403 86 403H216C262.944 403 301 441.056 301 488V488C301 534.944 262.944 573 216 573H81C36.8172 573 1 608.817 1 653V653C1 697.183 36.8172 733 81 733H216C262.944 733 301 771.056 301 818V818C301 864.944 262.944 903 216 903H85.75C38.9439 903 1 940.944 1 987.75V987.75C1 1034.56 38.9439 1072.5 85.75 1072.5H215.75C262.832 1072.5 301 1110.67 301 1157.75V1157.75C301 1204.83 262.832 1243 215.75 1243H86C39.0558 1243 1 1281.06 1 1328V1328C1 1374.94 39.0558 1413 86 1413H201C256.228 1413 301 1457.77 301 1513V1513C301 1568.23 256.228 1613 201 1613H86.25C39.1677 1613 1 1651.17 1 1698.25V1698.25C1 1745.33 39.1677 1783.5 86.25 1783.5H215.75C262.832 1783.5 301 1821.67 301 1868.75V1868.75C301 1915.83 262.832 1954 215.75 1954H86C39.0558 1954 1 1992.06 1 2039V2039C1 2085.94 39.0558 2124 86 2124H216.25C263.056 2124 301 2161.94 301 2208.75V2208.75C301 2255.56 263.056 2293.5 216.25 2293.5H86.5C39.2797 2293.5 1 2331.78 1 2379V2379C1 2426.22 39.2797 2464.5 86.5 2464.5H216.25C263.056 2464.5 301 2502.44 301 2549.25V2549.25C301 2596.06 263.056 2634 216.25 2634H86C39.0558 2634 1 2672.06 1 2719V2719C1 2765.94 39.0558 2804 86 2804H216.25C263.056 2804 301 2841.94 301 2888.75V2888.75C301 2935.56 263.056 2973.5 216.25 2973.5H86.25C39.1677 2973.5 1 3011.67 1 3058.75V3058.75C1 3105.83 39.1677 3144 86.25 3144H146" stroke="#003A65" stroke-width="2" stroke-dasharray="6 6"/>
</svg>
