<svg width="1202" height="986" viewBox="0 0 1202 986" fill="none" xmlns="http://www.w3.org/2000/svg">
<path d="M24.5 105H1100C1155.23 105 1200 149.772 1200 205V205C1200 260.228 1155.23 305 1100 305H100.75C46.2119 305 2 349.212 2 403.75V403.75C2 458.288 46.2119 502.5 100.75 502.5H1100.25C1155.34 502.5 1200 547.16 1200 602.25V602.25C1200 657.34 1155.34 702 1100.25 702H101.25C46.4357 702 2 746.436 2 801.25V801.25C2 856.064 46.4357 900.5 101.25 900.5H928.5" stroke="#003A65" stroke-width="2" stroke-dasharray="6 6"/>
</svg>
