<svg width="48" height="48" viewBox="0 0 48 48" fill="none" xmlns="http://www.w3.org/2000/svg">
<path d="M16.8078 21.9122C16.8078 22.1842 16.9598 22.4402 17.1918 22.5682C17.4398 22.6962 17.7278 22.6882 17.9598 22.5282L20.7998 20.6402L23.6398 22.5362C23.7678 22.6162 23.9038 22.6642 24.0478 22.6642C24.1758 22.6642 24.2958 22.6322 24.4078 22.5762C24.6478 22.4482 24.7918 22.2002 24.7918 21.9202V13.5762H16.7998V21.9122H16.8078Z" fill="#1893ED"/>
<path d="M43.1358 8.64763C43.0958 8.55163 43.0398 8.46363 42.9678 8.39163L39.5678 4.99963C39.2558 4.68763 38.7518 4.68763 38.4398 4.99963C38.1278 5.31163 38.1278 5.81562 38.4398 6.12762L40.4718 8.15963H36.2078C32.6638 8.15963 29.6478 10.4236 28.4958 13.5756H26.3918V21.9116C26.3918 22.7836 25.9198 23.5756 25.1598 23.9836C24.8158 24.1596 24.4398 24.2556 24.0558 24.2556C23.6078 24.2556 23.1598 24.1276 22.7758 23.8716L20.7998 22.5596L18.8398 23.8636C18.4638 24.1196 18.0158 24.2556 17.5438 24.2556C17.1678 24.2556 16.7918 24.1596 16.4558 23.9916C15.6798 23.5756 15.2078 22.7836 15.2078 21.9116V13.5756H5.5998C5.1598 13.5756 4.7998 13.9356 4.7998 14.3756V42.4316C4.7998 42.8796 5.1598 43.2316 5.5998 43.2316H35.9998C36.4398 43.2316 36.7998 42.8796 36.7998 42.4316V14.3756C36.7998 13.9356 36.4398 13.5756 35.9998 13.5756H30.2238C31.2798 11.3276 33.5598 9.75963 36.2078 9.75963H40.4718L38.4398 11.7836C38.1278 12.0956 38.1278 12.6076 38.4398 12.9196C38.5998 13.0716 38.7998 13.1516 39.0078 13.1516C39.2078 13.1516 39.4158 13.0716 39.5678 12.9196L42.9678 9.52763C43.1118 9.37563 43.1998 9.18363 43.1998 8.95963C43.1998 8.88763 43.1918 8.82363 43.1678 8.75963C43.1678 8.71963 43.1518 8.68763 43.1358 8.64763V8.64763ZM11.4478 38.6796C11.4478 39.1196 11.0878 39.4796 10.6478 39.4796C10.2078 39.4796 9.84781 39.1196 9.84781 38.6796V30.5596C9.84781 30.1196 10.2078 29.7596 10.6478 29.7596C11.0878 29.7596 11.4478 30.1196 11.4478 30.5596V38.6796ZM16.1198 38.6796C16.1198 39.1196 15.7598 39.4796 15.3198 39.4796C14.8798 39.4796 14.5198 39.1196 14.5198 38.6796V30.5596C14.5198 30.1196 14.8798 29.7596 15.3198 29.7596C15.7598 29.7596 16.1198 30.1196 16.1198 30.5596V38.6796Z" fill="#003A65"/>
</svg>
