<svg width="48" height="48" viewBox="0 0 48 48" fill="none" xmlns="http://www.w3.org/2000/svg">
<path d="M0.824219 11.344H11.2502V0.824219L0.824219 11.344Z" fill="#003A65"/>
<path d="M36.6562 25.4062C30.4531 25.4062 25.4062 30.4531 25.4062 36.6562C25.4062 42.8594 30.4531 48 36.6562 48C42.8594 48 48 42.8594 48 36.6562C48 30.4531 42.8594 25.4062 36.6562 25.4062ZM41.8692 36.2442L36.2442 41.8692C35.6949 42.4185 34.805 42.4185 34.2557 41.8692L31.4432 39.0567C30.8939 38.5074 30.8939 37.6175 31.4432 37.0682C31.9925 36.5189 32.8824 36.5189 33.4317 37.0682L35.25 38.8865L39.8808 34.2557C40.4301 33.7064 41.32 33.7064 41.8693 34.2557C42.4186 34.805 42.4186 35.6949 41.8692 36.2442Z" fill="#1893ED"/>
<path d="M7.03125 31.0312H23.7858C25.9619 26.0737 30.9046 22.5938 36.6562 22.5938V4.21875C36.6562 1.89244 34.7638 0 32.4375 0H14.0625V12.75C14.0625 13.5273 13.4335 14.1562 12.6562 14.1562H0V43.6875C0 46.0138 1.89244 48 4.21875 48H28.3058C25.5788 45.9696 23.5809 42.9174 22.878 39.4688H7.03125C6.25397 39.4688 5.625 38.8398 5.625 38.0625C5.625 37.2852 6.25397 36.6562 7.03125 36.6562H22.5938C22.5938 35.6932 22.6927 34.7528 22.878 33.8438H7.03125C6.25397 33.8438 5.625 33.2148 5.625 32.4375C5.625 31.6602 6.25397 31.0312 7.03125 31.0312ZM18.2812 8.53125H29.625C30.4023 8.53125 31.0312 9.16022 31.0312 9.9375C31.0312 10.7148 30.4023 11.3438 29.625 11.3438H18.2812C17.504 11.3438 16.875 10.7148 16.875 9.9375C16.875 9.16022 17.504 8.53125 18.2812 8.53125ZM18.2812 14.1562H29.625C30.4023 14.1562 31.0312 14.7852 31.0312 15.5625C31.0312 16.3398 30.4023 16.9688 29.625 16.9688H18.2812C17.504 16.9688 16.875 16.3398 16.875 15.5625C16.875 14.7852 17.504 14.1562 18.2812 14.1562ZM7.03125 19.7812H29.625C30.4023 19.7812 31.0312 20.4102 31.0312 21.1875C31.0312 21.9648 30.4023 22.5938 29.625 22.5938H7.03125C6.25397 22.5938 5.625 21.9648 5.625 21.1875C5.625 20.4102 6.25397 19.7812 7.03125 19.7812ZM7.03125 25.4062H24.5273C25.3046 25.4062 25.9336 26.0352 25.9336 26.8125C25.9336 27.5898 25.3046 28.2188 24.5273 28.2188H7.03125C6.25397 28.2188 5.625 27.5898 5.625 26.8125C5.625 26.0352 6.25397 25.4062 7.03125 25.4062Z" fill="#003A65"/>
</svg>
