<svg width="48" height="48" viewBox="0 0 48 48" fill="none" xmlns="http://www.w3.org/2000/svg">
<g clip-path="url(#clip0_259_1189)">
<path d="M20.0004 48C23.6226 48 26.6526 45.4178 27.3484 42H12.6523C13.3485 45.4178 16.3785 48 20.0004 48Z" fill="#003A65"/>
<path d="M35.1519 28.9918C35.0999 28.9918 35.0519 28.9999 34.9999 28.9999C26.1779 28.9999 19.0001 21.8221 19.0001 13.0001C19.0001 9.53394 20.12 6.33215 22.0001 3.70789V1.99988C22.0001 0.893921 21.104 0 19.9999 0C18.8961 0 18 0.893921 18 1.99988V4.16016C11.2258 5.13611 6 10.9622 6 18V23.5759C6 27.5339 4.26599 31.27 1.22388 33.8419C0.446045 34.5081 0 35.476 0 36.4999C0 38.4302 1.56995 40.0001 3.49988 40.0001H36.4999C38.4302 40.0001 40.0001 38.4302 40.0001 36.4999C40.0001 35.476 39.5541 34.5081 38.7561 33.8262C37.1799 32.4921 35.9641 30.832 35.1519 28.9918V28.9918Z" fill="#003A65"/>
<path d="M34.9998 0C27.8319 0 22 5.83191 22 13.0001C22 20.168 27.8319 25.9999 34.9998 25.9999C42.168 25.9999 47.9999 20.168 47.9999 13.0001C47.9999 5.83191 42.168 0 34.9998 0V0ZM37 17.5001C37 18.3281 36.328 19.0001 35.5 19.0001C34.672 19.0001 34 18.3281 34 17.5001V10.9999H32.9999C32.1719 10.9999 31.4999 10.3279 31.4999 9.49988C31.4999 8.67188 32.1719 7.99988 32.9999 7.99988H35.5C36.328 7.99988 37 8.67188 37 9.49988V17.5001Z" fill="#1893ED"/>
</g>
<defs>
<clipPath id="clip0_259_1189">
<rect width="48" height="48" fill="white"/>
</clipPath>
</defs>
</svg>
