<svg width="48" height="48" viewBox="0 0 48 48" fill="none" xmlns="http://www.w3.org/2000/svg">
<g clip-path="url(#clip0_259_1270)">
<path d="M15.0006 30.2754C12.6711 30.2754 10.7832 32.1625 10.7832 34.4923C10.7832 36.8222 12.6711 38.7094 15.0006 38.7094C17.331 38.7094 19.2184 36.8222 19.2184 34.4923C19.2184 32.1625 17.331 30.2754 15.0006 30.2754ZM15.0006 36.3257C13.9879 36.3257 13.1674 35.505 13.1674 34.4923C13.1674 33.4792 13.9879 32.659 15.0006 32.659C16.0134 32.659 16.8345 33.4792 16.8345 34.4923C16.8345 35.505 16.0134 36.3257 15.0006 36.3257Z" fill="#003A65"/>
<path d="M37.2388 30.2754C34.9092 30.2754 33.0215 32.1625 33.0215 34.4923C33.0215 36.8222 34.9092 38.7094 37.2388 38.7094C39.5693 38.7094 41.4565 36.8222 41.4565 34.4923C41.4565 32.1625 39.5693 30.2754 37.2388 30.2754ZM37.2388 36.3257C36.2261 36.3257 35.4057 35.505 35.4057 34.4923C35.4057 33.4792 36.2261 32.659 37.2388 32.659C38.2517 32.659 39.0728 33.4792 39.0728 34.4923C39.0728 35.505 38.2517 36.3257 37.2388 36.3257Z" fill="#003A65"/>
<path d="M45.5033 23.6078C43.9569 23.2058 43.0721 22.9531 42.4648 21.7804L40.4344 17.6694C39.827 16.4967 38.2493 15.5372 36.929 15.5372H34.1519C34.1519 15.5372 33.7783 15.545 33.7783 15.169C33.7783 14.307 33.7783 11.7212 33.7783 11.7212C33.7783 10.3846 33.022 9.29102 31.413 9.29102H8.77989C6.47643 9.29102 5.38281 10.3847 5.38281 11.7212V13.8819C5.38281 13.8819 5.38281 14.5245 6.00479 14.5245C9.17117 14.5245 18.6704 14.5245 18.6704 14.5245C19.8553 14.5245 20.8192 15.4883 20.8192 16.6732V17.3178C20.8192 18.5026 19.8553 19.4664 18.6704 19.4664H6.00479C6.00479 19.4664 5.38281 19.4147 5.38281 20.0862C5.38281 20.4196 5.38281 20.6435 5.38281 20.8292C5.38281 21.4201 6.19276 21.4198 6.19276 21.4198H14.7187C15.9035 21.4198 16.8674 22.3837 16.8674 23.5684V24.2131C16.8674 25.3979 15.9035 26.3617 14.7187 26.3617H6.32728C6.32728 26.3617 5.38281 26.3442 5.38281 27.0962C5.38281 28.4015 5.38281 32.3172 5.38281 32.3172C5.38281 33.6537 6.47643 34.7474 7.813 34.7474C7.813 34.7474 8.81977 34.7474 9.15536 34.7474C9.4598 34.7474 9.50464 34.5779 9.50464 34.4927C9.50464 31.4626 11.9701 28.9977 15.0003 28.9977C18.0308 28.9977 20.4961 31.4628 20.4961 34.4927C20.4961 34.5782 20.4718 34.7474 20.7046 34.7474C23.3655 34.7474 31.5377 34.7474 31.5377 34.7474C31.7524 34.7474 31.7437 34.5664 31.7437 34.4927C31.7437 31.4626 34.209 28.9977 37.2394 28.9977C40.2697 28.9977 42.7351 31.4628 42.7351 34.4927C42.7351 34.5782 42.7329 34.7474 42.8673 34.7474C44.0874 34.7474 45.5985 34.7474 45.5985 34.7474C46.9195 34.7474 48.0001 33.6669 48.0001 32.346V27.7837C48.0002 23.9415 46.787 23.9415 45.5033 23.6078ZM40.9336 23.3941C40.9336 23.3941 35.8338 23.3941 34.0981 23.3941C33.8157 23.3941 33.7782 23.1192 33.7782 23.1192V17.4252C33.7782 17.4252 33.7623 17.2065 34.1249 17.2065C34.6126 17.2065 36.0753 17.2065 36.0753 17.2065C37.2505 17.2065 38.6542 18.0603 39.1945 19.1038L41.0013 22.7618C41.0774 22.909 41.1587 23.0398 41.2458 23.157C41.31 23.2429 41.2024 23.3941 40.9336 23.3941Z" fill="#003A65"/>
<path d="M19.7442 17.3165C19.7442 17.9075 19.2606 18.3909 18.6698 18.3909H3.84379C3.25286 18.3909 2.76953 17.9075 2.76953 17.3165V16.6719C2.76953 16.0811 3.25297 15.5977 3.84379 15.5977H18.6698C19.2607 15.5977 19.7442 16.0811 19.7442 16.6719V17.3165V17.3165Z" fill="#1893ED"/>
<path d="M15.7928 24.2111C15.7928 24.802 15.3093 25.2855 14.7185 25.2855H1.07426C0.483324 25.2855 0 24.802 0 24.2111V23.5664C0 22.9756 0.483442 22.4922 1.07426 22.4922H14.7185C15.3094 22.4922 15.7928 22.9756 15.7928 23.5664V24.2111Z" fill="#1893ED"/>
</g>
<defs>
<clipPath id="clip0_259_1270">
<rect width="48" height="48" fill="white"/>
</clipPath>
</defs>
</svg>
