<svg width="48" height="48" viewBox="0 0 48 48" fill="none" xmlns="http://www.w3.org/2000/svg">
<g clip-path="url(#clip0_259_1366)">
<path d="M43.2409 31.9489H41.3279C41.3785 31.6773 41.4926 31.3501 41.7254 30.9892C42.4422 29.8784 42.5955 28.8974 42.7306 28.0319C42.8159 27.4865 42.8964 26.9713 43.1154 26.3769C43.3094 25.8504 43.6826 25.4228 44.0648 25.0969L45.3872 28.3566L48 27.2966L43.272 15.6055L42.1234 15.8379C41.9922 15.8644 38.8897 16.5291 36.9497 20.1215C35.5337 22.7436 32.3457 24.7795 28.4673 25.5953L27.6942 22.7592L26.3157 23.1627C24.0388 23.8291 22.7152 24.4294 20.678 25.6332C20.667 25.6476 20.6556 25.6625 20.6446 25.6768L15.2892 32.8683H10.8936C10.8936 32.8683 8.43069 29.511 7.02349 27.6379C6.23906 27.937 5.54956 28.3717 4.94878 28.9453C3.42889 30.3964 2.81017 32.7975 3.29891 34.9941L0 37.188L3.90053 44.2421H5.79261L7.25451 42.5969C8.72995 40.9366 10.85 39.9844 13.071 39.9844C14.9446 39.9844 16.7587 40.6636 18.1795 41.8968C19.7965 43.3004 21.3686 44.0709 22.8472 44.2352C24.5449 44.4239 25.5687 44.0085 26.9392 43.569C27.9779 43.2359 28.7714 42.8939 30.1329 43.0704C30.7081 43.1449 31.2317 43.1805 31.7114 43.1805C34.4019 43.1804 35.6915 42.0584 36.7076 40.3911C37.0586 39.8153 37.5489 39.484 38.0158 39.3369C39.2385 38.9516 40.362 40.3855 40.362 40.3855L43.0259 39.0761C43.4999 40.3806 43.7407 41.7449 43.7407 43.1377H46.5604C46.5604 41.256 46.206 39.416 45.5074 37.6688L43.2409 31.9489Z" fill="#003A65"/>
<path d="M12.3228 30.0492H13.861L18.4042 23.9661C20.3219 21.457 22.9484 18.0208 22.9484 13.5752C22.9484 8.14035 18.5268 3.71875 13.0919 3.71875C7.65705 3.71875 3.23535 8.14035 3.23535 13.5752C3.23535 18.0208 5.86177 21.457 7.77961 23.9661L12.3228 30.0492ZM8.39862 13.5752C8.39862 10.9874 10.5041 8.88192 13.0919 8.88192C15.6798 8.88192 17.7853 10.9874 17.7853 13.5752C17.7853 16.1631 15.6798 18.2686 13.0919 18.2686C10.5041 18.2686 8.39862 16.1632 8.39862 13.5752Z" fill="#1893ED"/>
<path d="M14.8286 14.2958C15.2249 13.3396 14.7711 12.2432 13.8149 11.8469C12.8588 11.4506 11.7624 11.9044 11.3661 12.8605C10.9697 13.8167 11.4236 14.9131 12.3797 15.3094C13.3359 15.7057 14.4323 15.2519 14.8286 14.2958Z" fill="black"/>
</g>
<defs>
<clipPath id="clip0_259_1366">
<rect width="48" height="48" fill="white"/>
</clipPath>
</defs>
</svg>
