<svg width="48" height="48" viewBox="0 0 48 48" fill="none" xmlns="http://www.w3.org/2000/svg">
<g clip-path="url(#clip0_259_1376)">
<path d="M45.8327 28.8202C43.4717 27.9656 40.8507 28.163 38.6412 29.3618C38.6124 29.3761 29.9906 33.2726 29.9906 33.2726C29.3781 33.7314 28.6676 33.9737 27.936 33.9737H22.5113C21.8374 33.9737 21.2912 33.4281 21.2912 32.7551C21.2912 32.082 21.8374 31.5364 22.5113 31.5364H27.936C29.6317 31.5364 29.6688 28.0477 28.0079 27.9094L20.4471 27.8225C19.1129 27.8078 17.7776 26.9502 16.3713 26.918C14.9399 26.8853 13.5857 27.2503 12.3824 28.0309C10.7067 29.1177 9.56267 30.8449 8.7959 32.6559L12.8866 42.9859H24.6487C25.7103 42.9859 26.7586 42.7074 27.6801 42.1802L45.9341 31.7377C46.489 31.2672 46.9177 30.7176 46.7294 29.8737C46.6234 29.3993 46.2829 28.9834 45.8327 28.8202Z" fill="#003A65"/>
<path d="M1.22559 33.9218L6.80036 47.9999L11.2751 45.5429L5.70025 31.4648L1.22559 33.9218Z" fill="#003A65"/>
<path d="M34.8186 0C28.8333 0 23.9814 4.91764 23.9814 10.9838C23.9814 17.0499 28.8334 21.9676 34.8186 21.9676C40.8037 21.9676 45.6557 17.0499 45.6557 10.9838C45.6558 4.91764 40.8038 0 34.8186 0ZM36.0501 16.4666V18.2874H33.5424V16.6147C32.5735 16.4707 31.7125 16.0851 30.9688 15.5007L31.8681 12.9786C32.5974 13.5516 33.6395 14.0752 34.5355 14.0752C35.2227 14.0752 35.6668 13.7598 35.6668 13.2716C35.6668 12.9543 35.5647 12.5741 34.3465 12.0775C32.8215 11.4758 31.2604 10.5931 31.2604 8.6161C31.2604 7.12349 32.1727 5.92431 33.6533 5.45149V3.6801H36.1455V5.29446C36.9038 5.41282 37.7149 5.78256 38.3822 6.21303L37.4474 8.69538C36.7755 8.24728 35.8227 7.81241 35.0582 7.81241C34.2224 7.81241 34.1321 8.24072 34.1321 8.42482C34.1321 8.71313 34.2397 8.96195 35.6313 9.54092C36.9921 10.0992 38.554 11.015 38.554 13.1599C38.5541 14.6923 37.5768 15.9739 36.0501 16.4666Z" fill="#1893ED"/>
</g>
<defs>
<clipPath id="clip0_259_1376">
<rect width="48" height="48" fill="white"/>
</clipPath>
</defs>
</svg>
