<svg width="53" height="48" viewBox="0 0 53 48" fill="none" xmlns="http://www.w3.org/2000/svg">
<path d="M13.1562 0C6.17722 0 0.5 5.67722 0.5 12.6562C0.5 19.6353 6.17722 25.3125 13.1562 25.3125C20.1011 25.3125 25.8125 19.7045 25.8125 12.6562C25.8125 5.76103 20.1931 0 13.1562 0ZM14.5625 19.4285V21.0938C14.5625 21.871 13.9335 22.5 13.1562 22.5C12.379 22.5 11.75 21.871 11.75 21.0938V19.4146C10.9793 19.1386 10.2822 18.6677 9.78209 18.0011C9.31653 17.379 9.4415 16.4974 10.0622 16.0318C10.6885 15.5704 11.5687 15.6899 12.0315 16.3119C12.2993 16.6703 12.7099 16.875 13.1562 16.875C13.9321 16.875 14.5625 16.2446 14.5625 15.4688C14.5625 14.6929 13.9321 14.0625 13.1562 14.0625C10.8299 14.0625 8.9375 12.1701 8.9375 9.84375C8.9375 8.01281 10.1167 6.4665 11.75 5.88403V4.21875C11.75 3.44147 12.379 2.8125 13.1562 2.8125C13.9335 2.8125 14.5625 3.44147 14.5625 4.21875V5.89791C15.3332 6.17391 16.0303 6.64481 16.5304 7.31137C16.996 7.9335 16.871 8.81513 16.2503 9.28069C15.6282 9.74756 14.7492 9.62259 14.281 9.00056C13.5462 8.01862 11.75 8.62153 11.75 9.84375C11.75 10.6196 12.3804 11.25 13.1562 11.25C15.4826 11.25 17.375 13.1424 17.375 15.4688C17.375 17.2997 16.1958 18.846 14.5625 19.4285Z" fill="#1893ED"/>
<path d="M47.0938 5.625H26.8887C27.7915 7.39003 28.348 9.29962 28.537 11.25H41.2812C42.0585 11.25 42.6875 11.879 42.6875 12.6562V23.9062C42.6875 24.6835 42.0585 25.3125 41.2812 25.3125H22.0124C19.6787 26.9425 17.2122 27.8056 14.5625 28.038V46.5938C14.5625 47.371 15.1915 48 15.9688 48H47.0938C47.871 48 48.5 47.371 48.5 46.5938V7.03125C48.5 6.25397 47.871 5.625 47.0938 5.625ZM30.0312 28.125H32.8438C33.621 28.125 34.25 28.754 34.25 29.5312C34.25 30.3085 33.621 30.9375 32.8438 30.9375H30.0312C29.254 30.9375 28.625 30.3085 28.625 29.5312C28.625 28.754 29.254 28.125 30.0312 28.125ZM30.0312 33.75H32.8438C33.621 33.75 34.25 34.379 34.25 35.1562C34.25 35.9335 33.621 36.5625 32.8438 36.5625H30.0312C29.254 36.5625 28.625 35.9335 28.625 35.1562C28.625 34.379 29.254 33.75 30.0312 33.75ZM24.4062 42.1875H21.5938C20.8165 42.1875 20.1875 41.5585 20.1875 40.7812C20.1875 40.004 20.8165 39.375 21.5938 39.375H24.4062C25.1835 39.375 25.8125 40.004 25.8125 40.7812C25.8125 41.5585 25.1835 42.1875 24.4062 42.1875ZM24.4062 36.5625H21.5938C20.8165 36.5625 20.1875 35.9335 20.1875 35.1562C20.1875 34.379 20.8165 33.75 21.5938 33.75H24.4062C25.1835 33.75 25.8125 34.379 25.8125 35.1562C25.8125 35.9335 25.1835 36.5625 24.4062 36.5625ZM24.4062 30.9375H21.5938C20.8165 30.9375 20.1875 30.3085 20.1875 29.5312C20.1875 28.754 20.8165 28.125 21.5938 28.125H24.4062C25.1835 28.125 25.8125 28.754 25.8125 29.5312C25.8125 30.3085 25.1835 30.9375 24.4062 30.9375ZM41.2812 42.1875H30.0312C29.254 42.1875 28.625 41.5585 28.625 40.7812C28.625 40.004 29.254 39.375 30.0312 39.375H41.2812C42.0585 39.375 42.6875 40.004 42.6875 40.7812C42.6875 41.5585 42.0585 42.1875 41.2812 42.1875ZM41.2812 36.5625H38.4688C37.6915 36.5625 37.0625 35.9335 37.0625 35.1562C37.0625 34.379 37.6915 33.75 38.4688 33.75H41.2812C42.0585 33.75 42.6875 34.379 42.6875 35.1562C42.6875 35.9335 42.0585 36.5625 41.2812 36.5625ZM41.2812 30.9375H38.4688C37.6915 30.9375 37.0625 30.3085 37.0625 29.5312C37.0625 28.754 37.6915 28.125 38.4688 28.125H41.2812C42.0585 28.125 42.6875 28.754 42.6875 29.5312C42.6875 30.3085 42.0585 30.9375 41.2812 30.9375Z" fill="#003A65"/>
<path d="M39.8747 22.5V14.0625H28.5066C28.2177 17.2291 27.0012 20.1479 25.0557 22.5H39.8747Z" fill="#003A65"/>
</svg>
