<svg width="48" height="48" viewBox="0 0 48 48" fill="none" xmlns="http://www.w3.org/2000/svg">
<path d="M16.5001 43.5004C14.8456 43.5004 13.5001 42.1542 13.5001 40.5004V36.0004C13.5001 34.7899 14.2245 33.7505 15.2595 33.2768C15.0992 32.9676 15.0001 32.622 15.0001 32.2504V29.2504C15.0001 28.0096 16.0094 27.0004 17.2501 27.0004H18.1382C18.0542 26.7646 18.0001 26.5146 18.0001 26.2504V23.2504C18.0001 22.0096 19.0094 21.0004 20.2501 21.0004H23.2501C23.8284 21.0004 24.3511 21.2258 24.7501 21.5856C25.1491 21.2258 25.6718 21.0004 26.2501 21.0004H29.2501C30.4908 21.0004 31.5001 22.0096 31.5001 23.2504V26.2504C31.5001 26.5146 31.446 26.7646 31.3619 27.0004H32.2501C32.9404 27.0004 33.5513 27.3195 33.9644 27.8104C34.5004 27.312 35.2126 27.0004 36.0001 27.0004H39.0001C39.8014 27.0004 40.5543 27.3124 41.1212 27.8793L43.5 30.2581V16.5H4.5V43.5004C4.5 44.3295 5.1709 45.0004 6 45.0004H17.6655C17.2739 44.5656 16.9565 44.0627 16.7572 43.5004H16.5001Z" fill="#003A65"/>
<path d="M44.5605 33.4395L40.0605 28.9395C39.7793 28.6582 39.3977 28.5 39 28.5H36C35.1716 28.5 34.5 29.1709 34.5 30V34.5H16.5C15.6716 34.5 15 35.1709 15 36V40.5C15 41.3291 15.6716 42 16.5 42H18C18 43.6538 19.3455 45 21 45C22.6545 45 24 43.6538 24 42H36C36 43.6538 37.3455 45 39 45C40.6545 45 42 43.6538 42 42H43.5C44.3284 42 45 41.3291 45 40.5V34.5C45 34.1016 44.8418 33.7207 44.5605 33.4395ZM21 43.5C20.1731 43.5 19.5 42.8276 19.5 42C19.5 41.1724 20.1731 40.5 21 40.5C21.8269 40.5 22.5 41.1724 22.5 42C22.5 42.8276 21.8269 43.5 21 43.5ZM39 43.5C38.1731 43.5 37.5 42.8276 37.5 42C37.5 41.1724 38.1731 40.5 39 40.5C39.8269 40.5 40.5 41.1724 40.5 42C40.5 42.8276 39.8269 43.5 39 43.5ZM36 34.5V30.75C36 30.3357 36.3358 30 36.75 30H39L43.5 34.5H36Z" fill="#003A65"/>
<path d="M43.4999 15.0004C44.2045 15.0004 44.8138 14.5096 44.9647 13.8226C45.1156 13.1342 44.7684 12.434 44.1283 12.1381L24.6283 3.13843C24.2299 2.95386 23.7699 2.95386 23.3715 3.13843L3.87145 12.1381C3.23132 12.434 2.88415 13.1342 3.03503 13.8226C3.18591 14.5096 3.79528 15.0004 4.49987 15.0004H43.4999Z" fill="#003A65"/>
<path d="M29.25 33H32.25C32.6642 33 33 32.6642 33 32.25V29.25C33 28.8357 32.6642 28.5 32.25 28.5H29.25C28.8358 28.5 28.5 28.8357 28.5 29.25V32.25C28.5 32.6642 28.8358 33 29.25 33Z" fill="#1893ED"/>
<path d="M23.25 33H26.25C26.6642 33 27 32.6642 27 32.25V29.25C27 28.8357 26.6642 28.5 26.25 28.5H23.25C22.8358 28.5 22.5 28.8357 22.5 29.25V32.25C22.5 32.6642 22.8358 33 23.25 33Z" fill="#1893ED"/>
<path d="M17.25 28.5C16.8358 28.5 16.5 28.8357 16.5 29.25V32.25C16.5 32.6642 16.8358 33 17.25 33H20.25C20.6642 33 21 32.6642 21 32.25V29.25C21 28.8357 20.6642 28.5 20.25 28.5H17.25Z" fill="#1893ED"/>
<path d="M24 26.25V23.25C24 22.8357 23.6642 22.5 23.25 22.5H20.25C19.8358 22.5 19.5 22.8357 19.5 23.25V26.25C19.5 26.6642 19.8358 27 20.25 27H23.25C23.6642 27 24 26.6642 24 26.25Z" fill="#1893ED"/>
<path d="M30 26.25V23.25C30 22.8357 29.6642 22.5 29.25 22.5H26.25C25.8358 22.5 25.5 22.8357 25.5 23.25V26.25C25.5 26.6642 25.8358 27 26.25 27H29.25C29.6642 27 30 26.6642 30 26.25Z" fill="#1893ED"/>
</svg>
