<svg width="48" height="48" viewBox="0 0 48 48" fill="none" xmlns="http://www.w3.org/2000/svg">
<path d="M39.4083 12.5431C39.2186 12.211 38.9854 11.9798 38.6264 11.8522L28.2183 8.06376C28.2577 6.93313 27.848 5.79032 26.9864 4.92969C25.2141 3.15632 22.2534 3.29826 20.6723 5.31688L10.2802 1.53501C10.2792 1.53407 10.2783 1.53407 10.2783 1.53407C9.55031 1.27401 8.81681 1.65941 8.54297 2.22313L1.95703 15.3013H5.10609L9.80578 5.96751L14.5627 15.3013H17.7192L12.6727 5.39844L19.7789 7.98501C19.8081 9.79176 20.9623 11.3206 22.5942 11.8981V39.2113C22.5942 39.9875 23.2242 40.6175 24.0005 40.6175C24.7767 40.6175 25.4067 39.9875 25.4067 39.2113V11.8981C26.0918 11.6568 26.7076 11.2413 27.1898 10.6822L36.1842 13.9559L30.2639 25.7169H33.413L38.152 16.3025L42.8948 25.7169H46.0439L39.4083 12.5431ZM24.998 8.91313C24.4477 9.46344 23.5533 9.46344 23.003 8.91313C22.4527 8.36282 22.4527 7.46844 23.003 6.91813C23.5533 6.36782 24.4477 6.36782 24.998 6.91813C25.5491 7.46929 25.5501 8.36104 24.998 8.91313Z" fill="#003A65"/>
<path d="M25.656 37.8984H22.3445C18.3491 37.8984 15.0986 41.1488 15.0986 45.1442C15.0986 45.9208 15.7283 46.5504 16.5049 46.5504H31.4955C32.2721 46.5504 32.9018 45.9208 32.9018 45.1442C32.9018 41.1488 29.6514 37.8984 25.656 37.8984Z" fill="#003A65"/>
<path d="M46.5936 28.5293H29.7139C28.9372 28.5293 28.3076 29.1589 28.3076 29.9355C28.3076 35.3647 32.7246 39.7816 38.1537 39.7816C43.5829 39.7816 47.9998 35.3647 47.9998 29.9355C47.9998 29.1589 47.3702 28.5293 46.5936 28.5293Z" fill="#1893ED"/>
<path d="M18.2906 18.1133H1.40625C0.629625 18.1133 0 18.7429 0 19.5195C0 24.95 4.41797 29.368 9.84844 29.368C15.2789 29.368 19.6969 24.95 19.6969 19.5195C19.6969 18.7429 19.0673 18.1133 18.2906 18.1133Z" fill="#003A65"/>
</svg>
