<svg width="48" height="48" viewBox="0 0 48 48" fill="none" xmlns="http://www.w3.org/2000/svg">
<path d="M11.9762 9.37771C10.9474 9.20278 9.56711 9.48065 8.36498 10.0972C8.02044 10.2748 7.68871 10.4721 7.39218 10.6918C4.72551 12.6449 3.61511 16.3836 3.64818 20.534C3.68178 24.6833 4.86791 29.158 6.60871 32.4561C8.35058 35.7532 11.3783 39.2593 14.7868 41.6257C18.1922 43.9926 21.9036 45.1841 25.0178 44.0871C25.373 43.9617 25.726 43.8033 26.0706 43.6166C27.2567 42.9724 28.262 41.9862 28.6956 41.039C29.1292 40.0918 29.1234 39.2897 28.2871 38.3862L22.2338 32.8252C21.837 32.4609 21.2668 32.3889 20.7895 32.6417L18.7698 33.694C17.0732 34.583 14.6732 33.7276 13.7122 31.9052L11.0738 26.9052C10.1068 25.0833 10.7591 22.622 12.4482 21.7169L14.4508 20.6417C14.926 20.391 15.1927 19.8748 15.118 19.3414L13.9319 11.2022C13.7538 9.98838 13.0007 9.55265 11.9762 9.37771Z" fill="#003A65"/>
<path fill-rule="evenodd" clip-rule="evenodd" d="M28.2431 13.67H30.9317C31.9514 13.645 32.8319 14.2423 32.6986 15.2567L31.8234 21.9282C31.6709 23.0839 33.4069 23.3863 33.985 21.9282C34.3375 21.0375 36.0517 21.4172 35.6767 22.8092C35.3653 23.973 33.6154 25.2284 32.5269 25.2284H31.4543C29.8485 25.1644 28.4655 23.7282 28.7183 21.9282L29.4682 16.5644L27.8458 16.0786C26.4181 15.6951 26.7066 13.6226 28.2431 13.67ZM31.2373 7.82044C32.4063 7.82044 33.3567 8.75591 33.3567 9.91164C33.3567 11.0674 32.4069 12.0028 31.2373 12.0028C30.065 12.0028 29.1178 11.0674 29.1178 9.91164C29.1183 8.75591 30.065 7.82044 31.2373 7.82044ZM31.0933 3.50044C26.0485 3.54791 21.3317 6.54524 19.2682 11.6871C17.7951 15.3559 18.0565 19.1708 19.6399 22.334L17.6986 25.1644C17.0341 26.1314 17.4874 27.1399 18.6506 26.99L22.9061 26.4455C23.9509 27.318 25.1509 28.0428 26.4842 28.5788C33.1642 31.2599 40.6261 28.2172 43.3786 21.365C46.129 14.509 42.8431 7.15004 36.1626 4.46738C34.4933 3.79751 32.7765 3.48658 31.0933 3.50044Z" fill="#1893ED"/>
</svg>
