<svg width="48" height="48" viewBox="0 0 48 48" fill="none" xmlns="http://www.w3.org/2000/svg">
<g clip-path="url(#clip0_259_1113)">
<path d="M2.8125 40.4082H1.40625C0.629625 40.4082 0 39.7786 0 39.002V21.1895C0 20.4128 0.629625 19.7832 1.40625 19.7832H2.8125C3.58913 19.7832 4.21875 20.4128 4.21875 21.1895V39.002C4.21875 39.7786 3.58913 40.4082 2.8125 40.4082Z" fill="#003A65"/>
<path d="M46.5938 40.4082H45.1875C44.4109 40.4082 43.7812 39.7786 43.7812 39.002V21.1895C43.7812 20.4128 44.4109 19.7832 45.1875 19.7832H46.5938C47.3704 19.7832 48 20.4128 48 21.1895V39.002C48 39.7786 47.3704 40.4082 46.5938 40.4082Z" fill="#003A65"/>
<path d="M34.2229 37.6577L27.6544 30.333C27.0796 29.692 26.1421 29.5249 25.3811 29.9277L19.2372 33.1803C18.3338 33.6586 17.3178 33.9113 16.2992 33.9113C13.9966 33.9113 11.8813 32.6563 10.7788 30.636C9.13116 27.6166 10.2369 23.8011 13.2438 22.1307L14.0944 21.6582H14.0943H7.03125V37.877L18.657 46.5962C19.8936 47.5234 21.3808 48.0008 22.8796 48.0008C23.6625 48.0008 24.4483 47.8682 25.2033 47.6034L31.83 44.7284L33.6228 43.6448C34.4711 43.1321 35.0698 42.2895 35.2686 41.3183C35.269 41.3158 35.2696 41.3133 35.2701 41.3108C35.5366 39.9967 35.145 38.6311 34.2229 37.6577Z" fill="#003A65"/>
<path d="M20.2497 21.6582C20.0108 21.6582 19.7757 21.7191 19.5668 21.8352L14.6093 24.5894C12.9415 25.5159 12.3334 27.6142 13.2473 29.289C14.1579 30.9576 16.2408 31.5842 17.9209 30.6948L23.4173 27.785C25.7 26.5764 28.5125 27.0779 30.2369 29.0009L36.2939 35.7553C37.1601 36.6812 37.7431 37.8144 38.0054 39.0219C39.0382 38.739 40.0326 38.3225 40.9684 37.7816V21.6582H20.2497Z" fill="#003A65"/>
<path d="M24 0C19.3401 0 15.5625 3.77756 15.5625 8.4375C15.5625 13.0974 19.3401 16.875 24 16.875C28.6599 16.875 32.4375 13.0974 32.4375 8.4375C32.4375 3.77756 28.6599 0 24 0ZM27.8735 7.11169L23.2331 11.752C22.6839 12.3012 21.7936 12.3012 21.2444 11.752L19.2556 9.76331C18.7064 9.21412 18.7064 8.32378 19.2556 7.77459C19.8048 7.22541 20.6951 7.22541 21.2443 7.77459L22.2387 8.769L25.8848 5.12297C26.4339 4.57378 27.3243 4.57378 27.8735 5.12297C28.4227 5.67216 28.4227 6.5625 27.8735 7.11169Z" fill="#1893ED"/>
</g>
<defs>
<clipPath id="clip0_259_1113">
<rect width="48" height="48" fill="white"/>
</clipPath>
</defs>
</svg>
