<svg width="48" height="48" viewBox="0 0 48 48" fill="none" xmlns="http://www.w3.org/2000/svg">
<g clip-path="url(#clip0_259_1234)">
<path d="M18.207 32.277C18.207 33.6685 19.0854 35.0078 20.6869 36.0749L26.9923 29.7696C24.6305 29.672 22.3947 29.2747 20.4889 28.6152C19.0142 29.6597 18.207 30.9488 18.207 32.277Z" fill="#003A65"/>
<path d="M0 46.345V48.0001H48V40.8945L42.5497 46.345H0Z" fill="#003A65"/>
<path d="M35.3115 36.2538C37.0895 35.1596 38.0687 33.7474 38.0687 32.2771C38.0687 30.9489 37.2615 29.6598 35.7868 28.6152C35.623 28.672 35.4568 28.727 35.2882 28.7799L26.1191 37.9489C26.7759 38.029 27.4511 38.0702 28.1377 38.0702C30.8604 38.0702 33.4079 37.4252 35.3115 36.2538Z" fill="#003A65"/>
<path d="M32.2487 29.4785C31.3104 29.6265 30.3347 29.7243 29.335 29.7675L22.2021 36.9003C22.8113 37.1707 23.4644 37.3969 24.1513 37.5759L32.2487 29.4785Z" fill="#003A65"/>
<path d="M40.9862 24.8281C40.417 25.9948 39.2407 27.0462 37.535 27.8897C38.9562 29.1488 39.7241 30.6697 39.7241 32.2765C39.7241 34.3432 38.4652 36.2561 36.1791 37.6628C34.0184 38.9924 31.1627 39.7247 28.1379 39.7247C25.1132 39.7247 22.2574 38.9924 20.0968 37.6628C17.8107 36.256 16.5518 34.3431 16.5518 32.2765C16.5518 30.6697 17.3197 29.1488 18.7408 27.8897C17.035 27.0463 15.8588 25.9948 15.2896 24.8281H0V44.6902H41.3793V38.0695H48V24.8281H40.9862ZM5.79309 42.2074H2.48278V27.3108H5.79309V42.2074ZM46.3448 36.4143H44.6897V26.4833H46.3448V36.4143Z" fill="#003A65"/>
<path d="M43.0342 43.5198L46.8295 39.7246H43.0342V43.5198Z" fill="#003A65"/>
<path fill-rule="evenodd" clip-rule="evenodd" d="M27.3103 0H28.9656L30.6207 0.0662559C32.0366 0.362318 33.1035 1.62007 33.1035 3.12269C33.1035 3.22085 33.0987 3.3206 33.0894 3.41876L32.6268 8.27585L32.4691 9.93115L32.3115 11.5863L32.154 13.2415L31.4521 20.6113L31.4484 20.6595C31.3013 20.9165 30.156 21.5173 28.138 21.5173C26.1201 21.5173 24.9748 20.9165 24.8277 20.6595V20.6504L24.1221 13.2415L23.9642 11.5863L23.8066 9.93115L23.649 8.27585L23.1864 3.41894C23.1771 3.3206 23.1724 3.22085 23.1724 3.1226C23.1724 1.62007 24.2392 0.362225 25.6551 0.0661621L27.3103 0ZM28.1378 24.8276C32.9662 24.8276 37.2916 23.4879 39.0024 21.5178C37.9767 20.3522 35.9247 19.3358 33.292 18.749L33.1028 20.7354C33.057 22.4093 30.5078 23.1723 28.1379 23.1723C25.768 23.1723 23.2189 22.4093 23.173 20.7354L22.9838 18.749C20.3511 19.3358 18.2991 20.3522 17.2734 21.5178C18.9841 23.4879 23.3093 24.8276 28.1378 24.8276ZM19.71 26.5192C21.9474 27.5632 24.9404 28.1382 28.1379 28.1382C31.3355 28.1382 34.3285 27.5632 36.5659 26.5192C38.573 25.5824 39.7241 24.3627 39.7241 23.1728C39.7241 23.1655 39.7236 23.1582 39.7231 23.151C39.7229 23.1479 39.7227 23.1447 39.7225 23.1416C39.7224 23.1387 39.7222 23.1357 39.7222 23.1328C37.4493 25.1775 33.0627 26.4831 28.1379 26.4831C23.2132 26.4831 18.8266 25.1774 16.5537 23.1328C16.5536 23.1389 16.5532 23.1449 16.5528 23.151C16.5523 23.1582 16.5518 23.1655 16.5518 23.1728C16.5518 24.3626 17.7029 25.5824 19.71 26.5192Z" fill="#1893ED"/>
</g>
<defs>
<clipPath id="clip0_259_1234">
<rect width="48" height="48" fill="white"/>
</clipPath>
</defs>
</svg>
