<svg width="48" height="48" viewBox="0 0 48 48" fill="none" xmlns="http://www.w3.org/2000/svg">
<path d="M15.9424 7.6583L15.9425 25.0955C16.6964 24.8411 17.3956 24.7319 18.1424 24.7745C18.6888 24.8058 19.2397 24.9161 19.8456 25.1141L19.8459 5.69141H17.9085C16.8246 5.69141 15.9424 6.57438 15.9424 7.65833V7.6583Z" fill="#003A65"/>
<path d="M38.6015 15.0591C38.5741 19.2614 35.1607 22.6754 30.9579 22.7031L30.9081 22.7038H30.9073H30.9065H30.9057H30.9049L30.8562 22.7032C26.6364 22.6759 23.2103 19.234 23.2103 15.0079L23.2109 14.9574C23.2384 10.7535 26.6529 7.33969 30.856 7.31262L30.9047 7.31198H30.9055H30.9062H30.907H30.9078L30.9577 7.31265C35.178 7.34041 38.6021 10.7813 38.6021 15.0079L38.6014 15.0591L38.6015 15.0591ZM20.8193 5.69142L20.8196 25.4851C22.2077 26.08 23.937 27.0642 26.447 28.5131L31.6585 31.5216C32.2421 31.8588 32.6602 32.4046 32.8351 33.0594C32.8447 33.0923 32.8528 33.1261 32.8596 33.1591L40.994 30.9802L40.9941 7.65824C40.9941 6.57433 40.1119 5.69146 39.0272 5.69146L20.8193 5.69141L20.8193 5.69142ZM24.7843 24.4442L37.0291 24.4441C37.2979 24.4441 37.5157 24.6622 37.5157 24.9309C37.5157 25.1995 37.2977 25.4175 37.0291 25.4174H24.7847C24.5159 25.4174 24.2977 25.1995 24.2977 24.9309C24.298 24.6621 24.5156 24.4442 24.7843 24.4442H24.7843ZM28.1224 27.1579L33.691 27.1579C33.9598 27.1579 34.1776 27.3759 34.1776 27.6446C34.1776 27.9132 33.9596 28.1312 33.691 28.1312H28.1227C27.8539 28.1312 27.6357 27.9132 27.6357 27.6446C27.6361 27.3758 27.8537 27.1579 28.1224 27.1579H28.1224Z" fill="#003A65"/>
<path d="M34.2881 18.3897C34.127 19.0877 33.9148 19.7342 33.656 20.3066C33.4717 20.7138 33.2682 21.0728 33.0488 21.3808C35.0353 20.7111 36.6091 19.1367 37.2785 17.1504C36.9704 17.3698 36.6114 17.5733 36.2041 17.7576C35.6321 18.0165 34.9859 18.2286 34.2881 18.3897L34.2881 18.3897Z" fill="#003A65"/>
<path d="M34.4873 12.6816C34.5976 13.4241 34.655 14.2071 34.655 15.0083C34.6551 15.8091 34.5978 16.5919 34.4874 17.3342C36.4338 16.8001 37.6289 15.8717 37.6289 15.0083C37.629 14.1444 36.4337 13.2158 34.4873 12.6816H34.4873Z" fill="#003A65"/>
<path d="M33.6562 9.70919C33.915 10.2813 34.1271 10.9276 34.2883 11.6256C34.9861 11.7865 35.6322 11.9985 36.2043 12.2573C36.6115 12.4416 36.9705 12.6451 37.2785 12.8645C36.6089 10.8782 35.0352 9.30428 33.0488 8.63477C33.2683 8.94281 33.4719 9.30188 33.6562 9.70919L33.6562 9.70919Z" fill="#003A65"/>
<path d="M31.3926 8.40625L31.3927 11.2665C32.0243 11.2849 32.6414 11.3391 33.2328 11.4268C32.7982 9.84284 32.1022 8.75612 31.3926 8.40625L31.3926 8.40625Z" fill="#003A65"/>
<path d="M30.4195 8.40625C29.7103 8.75635 29.0147 9.84296 28.5801 11.4266C29.1713 11.3388 29.7882 11.2847 30.4195 11.2663L30.4195 8.40625V8.40625Z" fill="#003A65"/>
<path d="M28.7638 8.63477C26.7773 9.3042 25.2031 10.8781 24.5332 12.8645C24.8411 12.6452 25.2001 12.4417 25.6072 12.2575C26.1797 11.9986 26.8262 11.7866 27.5242 11.6257C27.6853 10.9277 27.8974 10.2814 28.1563 9.70933C28.3407 9.30193 28.5443 8.94284 28.7638 8.63477V8.63477Z" fill="#003A65"/>
<path d="M24.1836 15.0085C24.1838 15.8718 25.3795 16.8003 27.326 17.3344C27.2157 16.5921 27.1583 15.8093 27.1583 15.0085C27.1584 14.2072 27.2158 13.4241 27.3261 12.6816C25.3794 13.2158 24.1836 14.1445 24.1836 15.0085H24.1836Z" fill="#003A65"/>
<path d="M24.5332 17.1504C25.2029 19.1369 26.7772 20.7114 28.7638 21.3811C28.5443 21.073 28.3407 20.7139 28.1564 20.3066C27.8976 19.7342 27.6854 19.0877 27.5243 18.3897C26.8263 18.2286 26.1797 18.0165 25.6074 17.7576C25.2002 17.5733 24.8412 17.3698 24.5332 17.1504L24.5332 17.1504Z" fill="#003A65"/>
<path d="M28.1309 15.0082C28.1309 15.9323 28.2106 16.7909 28.3492 17.5645C28.9852 17.6785 29.6788 17.7526 30.4188 17.7754L30.419 12.2402C29.6789 12.263 28.9853 12.3371 28.3493 12.4511C28.2106 13.2249 28.1309 14.0839 28.1309 15.0082V15.0082Z" fill="#003A65"/>
<path d="M31.3926 12.2402L31.3927 17.7754C32.1331 17.7526 32.8268 17.6785 33.463 17.5644C33.6017 16.7908 33.6813 15.9322 33.6813 15.0082C33.6813 14.0839 33.6017 13.225 33.463 12.4512C32.8267 12.3371 32.133 12.263 31.3926 12.2402V12.2402Z" fill="#003A65"/>
<path d="M31.3926 18.7484L31.3927 21.6086C32.1023 21.2585 32.798 20.1718 33.2326 18.5879C32.6412 18.6758 32.0241 18.73 31.3926 18.7484V18.7484Z" fill="#003A65"/>
<path d="M28.5801 18.5879C29.0146 20.1717 29.7101 21.2584 30.4193 21.6085L30.4194 18.7484C29.7882 18.73 29.1713 18.6757 28.5801 18.5879V18.5879Z" fill="#003A65"/>
<path d="M7.65805 26.8926L3.81055 29.1137L11.4281 42.3072L15.2744 40.086L9.10276 29.3951L9.09074 29.3756L9.07815 29.3525L7.65805 26.8926Z" fill="#1893ED"/>
<path d="M18.0874 25.7452C16.3732 25.6479 14.789 26.5833 11.6351 28.4479C11.1914 28.7104 10.7006 29.001 10.1758 29.308L14.4775 36.7586C14.6048 36.6753 14.7275 36.594 14.8481 36.5139C16.5827 35.3623 17.539 34.7287 20.1793 36.263C20.8264 36.6397 21.411 36.9828 21.9425 37.2946C24.5382 38.8186 25.8407 39.5833 26.9459 39.7852C28.0166 39.9812 29.036 39.6501 31.0688 38.9911C32.3618 38.572 33.9692 38.0507 36.236 37.4432L42.692 35.7138C43.2106 35.5744 43.6447 35.2398 43.9159 34.7709C44.1865 34.302 44.2589 33.7579 44.1203 33.24C43.9812 32.7212 43.6463 32.287 43.1775 32.0167C42.7087 31.7454 42.1644 31.6728 41.6466 31.8122L32.8853 34.1592C32.8347 34.4448 32.734 34.7211 32.5853 34.9788C32.2485 35.5625 31.7024 35.9808 31.0477 36.1557C30.3932 36.3314 29.7111 36.2427 29.1273 35.9056L23.9155 32.8961C23.6832 32.7618 23.6035 32.4644 23.7379 32.2321C23.8725 31.9988 24.1696 31.9195 24.4019 32.0538L29.6142 35.0623C29.9723 35.2693 30.3921 35.3243 30.7959 35.2162C31.1992 35.1079 31.5351 34.8504 31.7422 34.4921C31.8691 34.2724 31.9382 34.0308 31.9483 33.7832C31.9485 33.7688 31.9483 33.7554 31.95 33.7419C31.952 33.5982 31.934 33.4529 31.8959 33.3101C31.7881 32.9071 31.5301 32.5709 31.1719 32.3639L25.9609 29.3544C21.8583 26.9863 19.8101 25.844 18.0874 25.7452L18.0874 25.7452Z" fill="#1893ED"/>
</svg>
