<svg width="48" height="48" viewBox="0 0 48 48" fill="none" xmlns="http://www.w3.org/2000/svg">
<g clip-path="url(#clip0_259_1283)">
<path d="M6.85706 6.00089V1.21289L1.21191 6.85803H5.99991C6.4733 6.85803 6.85706 6.47428 6.85706 6.00089Z" fill="#003A65"/>
<path fill-rule="evenodd" clip-rule="evenodd" d="M26.2569 18.8023L36.5143 22.7451C38.0714 23.5069 39.7707 23.9343 41.5029 24H42V41.1429H38.3314C37.2998 41.1365 36.2911 41.4474 35.442 42.0334C34.3213 42.7988 33.0506 43.3168 31.7143 43.5531V36C31.7143 35.5266 31.3305 35.1429 30.8571 35.1429C30.3838 35.1429 30 35.5266 30 36V47.1429C30 47.6162 29.6162 48 29.1429 48H0.857143C0.383756 48 0 47.6162 0 47.1429V8.57143H6C7.42016 8.57143 8.57143 7.42016 8.57143 6V0H29.1429C29.6162 0 30 0.383756 30 0.857143V18.4046L26.8466 17.1951C24.8725 16.5009 22.7044 17.5034 21.9549 19.4571L18.6326 28.188C17.8704 30.1779 18.8657 32.4088 20.8556 33.171C22.8455 33.9332 25.0764 32.9379 25.8386 30.948L27.6 26.3314L29.8534 27.462C29.6202 29.2789 30.0579 31.1185 31.0843 32.6357C32.2667 34.1044 34.0098 35.0111 35.8911 35.136C36.1996 35.1832 36.5093 35.059 36.6997 34.8118C36.8902 34.5646 36.9312 34.2335 36.8069 33.9473C36.6826 33.6611 36.4126 33.465 36.102 33.4354C34.6862 33.3576 33.3661 32.6958 32.4566 31.608C31.6118 30.2688 31.3133 28.6565 31.6226 27.1037C31.6553 26.7385 31.4757 26.3869 31.1606 26.1994L27.5177 24.3737C27.0633 24.1746 26.5334 24.3809 26.3331 24.8349L24.2314 30.3394C23.808 31.4448 22.5686 31.9976 21.4633 31.5741C20.3579 31.1507 19.8051 29.9114 20.2286 28.806L23.5611 20.0571C23.988 18.9933 25.168 18.444 26.2569 18.8023ZM12.8571 22.2857H18.4543C18.9277 22.2857 19.3114 21.902 19.3114 21.4286C19.3114 20.9552 18.9277 20.5714 18.4543 20.5714H12.8571H9.42857H4.28571C3.81233 20.5714 3.42857 20.9552 3.42857 21.4286C3.42857 21.902 3.81233 22.2857 4.28571 22.2857H9.42857H12.8571ZM26.5714 12H12.8571H9.42857H4.28571C3.81233 12 3.42857 12.3838 3.42857 12.8571C3.42857 13.3305 3.81233 13.7143 4.28571 13.7143H9.42857H12.8571H26.5714C27.0448 13.7143 27.4286 13.3305 27.4286 12.8571C27.4286 12.3838 27.0448 12 26.5714 12ZM18 16.2857H4.28571C3.81233 16.2857 3.42857 16.6695 3.42857 17.1429C3.42857 17.6162 3.81233 18 4.28571 18H18C18.4734 18 18.8571 17.6162 18.8571 17.1429C18.8571 16.6695 18.4734 16.2857 18 16.2857ZM16.8171 24.8571H4.28571C3.81233 24.8571 3.42857 25.2409 3.42857 25.7143C3.42857 26.1877 3.81233 26.5714 4.28571 26.5714H16.8171C17.2905 26.5714 17.6743 26.1877 17.6743 25.7143C17.6743 25.2409 17.2905 24.8571 16.8171 24.8571ZM15.8229 30.8571C16.2962 30.8571 16.68 30.4734 16.68 30C16.68 29.5266 16.2962 29.1429 15.8229 29.1429H12.8571H9.42857H4.28571C3.81233 29.1429 3.42857 29.5266 3.42857 30C3.42857 30.4734 3.81233 30.8571 4.28571 30.8571H9.42857H12.8571H15.8229ZM17.8629 33.4286H4.28571C3.81233 33.4286 3.42857 33.8123 3.42857 34.2857C3.42857 34.7591 3.81233 35.1429 4.28571 35.1429H17.8629C18.3362 35.1429 18.72 34.7591 18.72 34.2857C18.72 33.8123 18.3362 33.4286 17.8629 33.4286ZM9.42857 37.7143H4.28571C3.81233 37.7143 3.42857 38.098 3.42857 38.5714C3.42857 39.0448 3.81233 39.4286 4.28571 39.4286H9.42857C9.90196 39.4286 10.2857 39.0448 10.2857 38.5714C10.2857 38.098 9.90196 37.7143 9.42857 37.7143ZM4.28571 43.7143H18C18.4734 43.7143 18.8571 43.3305 18.8571 42.8571C18.8571 42.3838 18.4734 42 18 42H4.28571C3.81233 42 3.42857 42.3838 3.42857 42.8571C3.42857 43.3305 3.81233 43.7143 4.28571 43.7143ZM21.4286 43.7143H26.5714C27.0448 43.7143 27.4286 43.3305 27.4286 42.8571C27.4286 42.3838 27.0448 42 26.5714 42H21.4286C20.9552 42 20.5714 42.3838 20.5714 42.8571C20.5714 43.3305 20.9552 43.7143 21.4286 43.7143ZM12.8571 39.4286H26.5714C27.0448 39.4286 27.4286 39.0448 27.4286 38.5714C27.4286 38.098 27.0448 37.7143 26.5714 37.7143H12.8571C12.3838 37.7143 12 38.098 12 38.5714C12 39.0448 12.3838 39.4286 12.8571 39.4286Z" fill="#003A65"/>
<path d="M47.1424 22.2852H44.571C44.0976 22.2852 43.7139 22.6689 43.7139 23.1423V41.9994C43.7139 42.4728 44.0976 42.8566 44.571 42.8566H47.1424C47.6158 42.8566 47.9996 42.4728 47.9996 41.9994V23.1423C47.9996 22.6689 47.6158 22.2852 47.1424 22.2852Z" fill="#1893ED"/>
</g>
<defs>
<clipPath id="clip0_259_1283">
<rect width="48" height="48" fill="white"/>
</clipPath>
</defs>
</svg>
