<svg width="48" height="48" viewBox="0 0 48 48" fill="none" xmlns="http://www.w3.org/2000/svg">
<g clip-path="url(#clip0_259_1178)">
<path d="M35 22C27.832 22 22 27.832 22 35C22 42.168 27.832 48 35 48C42.168 48 48 42.168 48 35C48 27.832 42.168 22 35 22ZM40.634 32.482L34.134 39.982C33.86 40.296 33.47 40.484 33.054 40.498C33.036 40.498 33.018 40.498 33 40.498C32.602 40.498 32.22 40.34 31.94 40.058L28.44 36.558C27.854 35.972 27.854 35.022 28.44 34.436C29.026 33.85 29.976 33.85 30.562 34.436L32.924 36.796L38.368 30.514C38.91 29.89 39.856 29.82 40.484 30.362C41.108 30.91 41.176 31.856 40.634 32.482Z" fill="#1893ED"/>
<path d="M18.4406 0L8.72059 0.04C7.46059 0.04 6.28059 0.74 5.68059 1.84L0.600586 11.04L17.4606 11L18.4406 0Z" fill="#003A65"/>
<path d="M39.3604 10.9609L34.2204 1.76094C33.6004 0.660937 32.4404 -0.0390625 31.1604 -0.0390625L21.4404 0.000937499L22.4604 11.0009L39.3604 10.9609Z" fill="#003A65"/>
<path d="M40.0005 18.7414C38.4205 18.2614 36.7405 18.0014 35.0005 18.0014C25.6205 18.0014 18.0005 25.6214 18.0005 35.0014C18.0005 36.7414 18.2605 38.4414 18.7605 40.0214L3.22047 40.0614C3.20047 40.0614 3.20047 40.0614 3.20047 40.0614C1.48047 40.0614 0.0604687 38.6414 0.0604687 36.9014L-0.0195312 14.0414L18.4805 14.0014H21.4805L39.9805 13.9414L40.0005 18.7414Z" fill="#003A65"/>
</g>
<defs>
<clipPath id="clip0_259_1178">
<rect width="48" height="48" fill="white"/>
</clipPath>
</defs>
</svg>
