<svg width="48" height="48" viewBox="0 0 48 48" fill="none" xmlns="http://www.w3.org/2000/svg">
<path d="M4.99512 8.97V35.835C5.0004 37.8145 5.78911 39.7115 7.18886 41.1113C8.58862 42.511 10.4856 43.2997 12.4651 43.305H22.5751C22.719 42.2665 23.0173 41.2553 23.4601 40.305C24.6715 37.6333 26.8621 35.5285 29.5801 34.425C28.6007 33.7473 27.8008 32.8415 27.2494 31.7858C26.698 30.7301 26.4117 29.556 26.4151 28.365C26.4171 26.3964 27.2 24.5089 28.592 23.1169C29.984 21.7249 31.8715 20.942 33.8401 20.94C34.557 20.9373 35.2701 21.0435 35.9551 21.255C37.0795 21.5877 38.1081 22.1842 38.9551 22.995V8.97C38.9549 6.98889 38.1679 5.08897 36.767 3.68811C35.3661 2.28725 33.4662 1.50018 31.4851 1.5H12.4651C10.4848 1.50273 8.58635 2.29062 7.18604 3.69092C5.78573 5.09123 4.99784 6.98967 4.99512 8.97ZM14.0551 8.94H29.8951C30.2929 8.94 30.6745 9.09804 30.9558 9.37934C31.2371 9.66064 31.3951 10.0422 31.3951 10.44C31.3951 10.8378 31.2371 11.2194 30.9558 11.5007C30.6745 11.782 30.2929 11.94 29.8951 11.94H14.0551C13.6573 11.94 13.2758 11.782 12.9945 11.5007C12.7132 11.2194 12.5551 10.8378 12.5551 10.44C12.5551 10.0422 12.7132 9.66064 12.9945 9.37934C13.2758 9.09804 13.6573 8.94 14.0551 8.94ZM14.0551 16.92H29.8951C30.2929 16.92 30.6745 17.078 30.9558 17.3593C31.2371 17.6406 31.3951 18.0222 31.3951 18.42C31.3951 18.8178 31.2371 19.1994 30.9558 19.4807C30.6745 19.762 30.2929 19.92 29.8951 19.92H14.0551C13.6573 19.92 13.2758 19.762 12.9945 19.4807C12.7132 19.1994 12.5551 18.8178 12.5551 18.42C12.5551 18.0222 12.7132 17.6406 12.9945 17.3593C13.2758 17.078 13.6573 16.92 14.0551 16.92ZM14.0551 24.885H21.2551C21.6529 24.885 22.0345 25.043 22.3158 25.3243C22.5971 25.6056 22.7551 25.9872 22.7551 26.385C22.7551 26.7828 22.5971 27.1644 22.3158 27.4457C22.0345 27.727 21.6529 27.885 21.2551 27.885H14.0551C13.6573 27.885 13.2758 27.727 12.9945 27.4457C12.7132 27.1644 12.5551 26.7828 12.5551 26.385C12.5551 25.9872 12.7132 25.6056 12.9945 25.3243C13.2758 25.043 13.6573 24.885 14.0551 24.885Z" fill="#003A65"/>
<path d="M33.84 33.5395C36.6981 33.5395 39.015 31.2225 39.015 28.3645C39.015 25.5064 36.6981 23.1895 33.84 23.1895C30.982 23.1895 28.665 25.5064 28.665 28.3645C28.665 31.2225 30.982 33.5395 33.84 33.5395Z" fill="#1893ED"/>
<path d="M26.1904 46.4993H41.5054C41.9029 46.4981 42.2837 46.3397 42.5648 46.0586C42.8458 45.7776 43.0042 45.3968 43.0054 44.9993C43.0054 42.5706 42.0406 40.2413 40.3233 38.524C38.6059 36.8066 36.2767 35.8418 33.8479 35.8418C31.4192 35.8418 29.09 36.8066 27.3726 38.524C25.6552 40.2413 24.6904 42.5706 24.6904 44.9993C24.6916 45.3968 24.85 45.7776 25.131 46.0587C25.4121 46.3397 25.793 46.4981 26.1904 46.4993Z" fill="#1893ED"/>
</svg>
