<svg width="48" height="48" viewBox="0 0 48 48" fill="none" xmlns="http://www.w3.org/2000/svg">
<g clip-path="url(#clip0_259_1251)">
<path d="M19.3812 17.1787L22.6872 11.6664L2.9731 6.14648L0.337398 10.5548C-0.329764 11.6649 0.0292299 13.1057 1.13936 13.7728C1.31926 13.8809 1.51272 13.9644 1.71481 14.021L16.7396 18.2304C17.7565 18.5148 18.838 18.0842 19.3812 17.1787Z" fill="#003A65"/>
<path d="M4.05268 31.3718L11.143 33.3081V24.8576C11.143 22.9641 12.678 21.429 14.5715 21.429H23.1428V14.2402L20.8509 18.0614C19.9089 19.6274 18.0375 20.372 16.2772 19.8811L3.42871 16.2861V30.5489C3.42951 30.9318 3.68425 31.2676 4.05268 31.3718Z" fill="#003A65"/>
<path d="M24.0008 10.2542L42.275 5.13799L24.4601 0.0636576C24.1589 -0.0212192 23.84 -0.0212192 23.5387 0.0636576L5.72656 5.13799L24.0008 10.2542Z" fill="#003A65"/>
<path d="M43.9511 31.372C44.3181 31.2666 44.5712 30.931 44.5716 30.5491V16.2863L31.7231 19.8863C31.3686 19.9862 31.002 20.0367 30.6337 20.0363C29.2068 20.036 27.8845 19.2878 27.1494 18.0648L24.8574 14.2402V21.429H33.4288C35.3223 21.429 36.8573 22.9641 36.8573 24.8576V33.3081L43.9511 31.372Z" fill="#003A65"/>
<path d="M28.6196 17.1788C29.1634 18.0836 30.2444 18.514 31.2613 18.2304L46.2861 14.021C47.5332 13.6712 48.2605 12.3766 47.9106 11.1296C47.8542 10.9284 47.7711 10.7357 47.6636 10.5565L45.0296 6.14648L25.3154 11.6665L28.6196 17.1788Z" fill="#003A65"/>
<path d="M35.1431 46.2853V24.8569C35.1431 23.9101 34.3755 23.1426 33.4287 23.1426H14.5717C13.6249 23.1426 12.8574 23.9101 12.8574 24.8569V46.2853C12.8574 47.2321 13.6249 47.9996 14.5717 47.9996H33.4287C34.3755 47.9996 35.1431 47.2321 35.1431 46.2853ZM20.3206 42.6056L17.7491 45.177C17.4145 45.5116 16.8718 45.5116 16.5372 45.177L15.6801 44.3199C15.3512 43.9794 15.3606 43.4368 15.701 43.1079C16.0332 42.7871 16.5599 42.7871 16.892 43.1079L17.1431 43.359L19.1086 41.3936C19.4491 41.0647 19.9917 41.0742 20.3206 41.4146C20.6414 41.7469 20.6414 42.2735 20.3206 42.6056ZM20.3206 37.4628L17.7491 40.0342C17.4145 40.3688 16.8718 40.3688 16.5372 40.0342L15.6801 39.1771C15.3512 38.8366 15.3606 38.2939 15.701 37.9651C16.0332 37.6443 16.5599 37.6443 16.892 37.9651L17.1431 38.2162L19.1086 36.2508C19.4491 35.9219 19.9917 35.9314 20.3206 36.2718C20.6414 36.604 20.6414 37.1307 20.3206 37.4628ZM20.3206 32.3199L17.7491 34.8913C17.4145 35.2259 16.8718 35.2259 16.5372 34.8913L15.6801 34.0342C15.3512 33.6937 15.3606 33.1511 15.701 32.8223C16.0332 32.5014 16.5599 32.5014 16.892 32.8223L17.1431 33.0734L19.1086 31.1079C19.4491 30.7791 19.9917 30.7885 20.3206 31.1289C20.6414 31.4612 20.6414 31.9878 20.3206 32.3199ZM20.3206 27.1771L17.7491 29.7485C17.4145 30.0831 16.8718 30.0831 16.5372 29.7485L15.6801 28.8914C15.3512 28.5509 15.3606 28.0083 15.701 27.6794C16.0332 27.3586 16.5599 27.3586 16.892 27.6794L17.1431 27.9305L19.1086 25.9651C19.4491 25.6363 19.9917 25.6457 20.3206 25.9861C20.6414 26.3184 20.6414 26.845 20.3206 27.1771ZM31.7145 44.571H23.1432C22.6698 44.571 22.2861 44.1873 22.2861 43.7139C22.2861 43.2405 22.6699 42.8568 23.1432 42.8568H31.7145C32.1879 42.8568 32.5716 43.2405 32.5716 43.7139C32.5716 44.1873 32.1878 44.571 31.7145 44.571ZM31.7145 39.4282H23.1432C22.6698 39.4282 22.2861 39.0444 22.2861 38.5711C22.2861 38.0977 22.6699 37.714 23.1432 37.714H31.7145C32.1879 37.714 32.5716 38.0978 32.5716 38.5711C32.5716 39.0445 32.1878 39.4282 31.7145 39.4282ZM31.7145 34.2853H23.1432C22.6698 34.2853 22.2861 33.9016 22.2861 33.4282C22.2861 32.9548 22.6699 32.5711 23.1432 32.5711H31.7145C32.1879 32.5711 32.5716 32.9548 32.5716 33.4282C32.5716 33.9016 32.1878 34.2853 31.7145 34.2853ZM31.7145 29.1425H23.1432C22.6698 29.1425 22.2861 28.7588 22.2861 28.2854C22.2861 27.812 22.6699 27.4283 23.1432 27.4283H31.7145C32.1879 27.4283 32.5716 27.812 32.5716 28.2854C32.5716 28.7588 32.1878 29.1425 31.7145 29.1425Z" fill="#1893ED"/>
</g>
<defs>
<clipPath id="clip0_259_1251">
<rect width="48" height="48" fill="white"/>
</clipPath>
</defs>
</svg>
