<svg width="48" height="48" viewBox="0 0 48 48" fill="none" xmlns="http://www.w3.org/2000/svg">
<g clip-path="url(#clip0_259_1162)">
<path d="M1.47422 23.3453C2.23059 23.381 2.8125 24.0325 2.8125 24.7898V24.8438C2.8125 25.6133 3.43397 26.2397 4.20141 26.2492L5.54044 26.0657C7.79128 25.7573 9.46875 23.8343 9.46875 21.5625H38.5312C38.5312 23.8343 40.2087 25.7573 42.4596 26.0657L43.7986 26.2492C44.566 26.2397 45.1875 25.6133 45.1875 24.8438V24.7898C45.1875 24.0325 45.7694 23.381 46.5258 23.3453C47.3333 23.3073 48 23.9508 48 24.75V24.8438C48 27.1737 46.1112 29.0625 43.7812 29.0625H43.6875H4.3125H4.21875C1.88878 29.0625 0 27.1737 0 24.8438V24.75C0 23.9508 0.666656 23.3073 1.47422 23.3453V23.3453Z" fill="#1893ED"/>
<path d="M0 46.5938C0 47.3704 0.629625 48 1.40625 48H46.5938C47.3704 48 48 47.3704 48 46.5938C48 45.8171 47.3704 45.1875 46.5938 45.1875H44.1562V31.875H3.84375V45.1875H1.40625C0.629625 45.1875 0 45.8171 0 46.5938ZM31.9688 36.0938C31.9688 35.3171 32.5984 34.6875 33.375 34.6875H39C39.7766 34.6875 40.4062 35.3171 40.4062 36.0938V41.7188C40.4062 42.4954 39.7766 43.125 39 43.125H33.375C32.5984 43.125 31.9688 42.4954 31.9688 41.7188V36.0938ZM19.7812 36.0938C19.7812 35.3171 20.4109 34.6875 21.1875 34.6875H26.8125C27.5891 34.6875 28.2188 35.3171 28.2188 36.0938V41.7188C28.2188 42.4954 27.5891 43.125 26.8125 43.125H21.1875C20.4109 43.125 19.7812 42.4954 19.7812 41.7188V36.0938ZM7.59375 36.0938C7.59375 35.3171 8.22337 34.6875 9 34.6875H14.625C15.4016 34.6875 16.0312 35.3171 16.0312 36.0938V41.7188C16.0312 42.4954 15.4016 43.125 14.625 43.125H9C8.22337 43.125 7.59375 42.4954 7.59375 41.7188V36.0938Z" fill="#003A65"/>
<path d="M22.5938 37.5H25.4062V40.3125H22.5938V37.5Z" fill="#003A65"/>
<path d="M34.7812 37.5H37.5938V40.3125H34.7812V37.5Z" fill="#003A65"/>
<path d="M10.4062 37.5H13.2188V40.3125H10.4062V37.5Z" fill="#003A65"/>
<path d="M38.1562 7.5H38.0625H9.9375H9.84375C7.51753 7.5 5.625 5.60747 5.625 3.28125V3.1875C5.625 2.41087 6.25462 1.78125 7.03125 1.78125C7.80788 1.78125 8.4375 2.41087 8.4375 3.1875V3.28125C8.4375 4.05516 9.06591 4.68478 9.83925 4.68731L12.1507 4.35713C14.2928 4.05113 16.1495 2.71284 17.1172 0.777375C17.3554 0.300938 17.8423 0 18.375 0H29.625C30.1577 0 30.6446 0.300938 30.8827 0.777375C31.8504 2.71284 33.7072 4.05103 35.8493 4.35713L38.1608 4.68731C38.9341 4.68478 39.5625 4.05516 39.5625 3.28125V3.1875C39.5625 2.41087 40.1921 1.78125 40.9688 1.78125C41.7454 1.78125 42.375 2.41087 42.375 3.1875V3.28125C42.375 5.60747 40.4825 7.5 38.1562 7.5Z" fill="#1893ED"/>
<path d="M28.6875 15.9375H31.5V18.75H28.6875V15.9375Z" fill="#003A65"/>
<path d="M16.5 15.9375H19.3125V18.75H16.5V15.9375Z" fill="#003A65"/>
<path d="M9.46875 18.75V10.3125H38.5312V18.75H34.3125V14.5312C34.3125 13.7546 33.6829 13.125 32.9062 13.125H27.2812C26.5046 13.125 25.875 13.7546 25.875 14.5312V18.75H22.125V14.5312C22.125 13.7546 21.4954 13.125 20.7188 13.125H15.0938C14.3171 13.125 13.6875 13.7546 13.6875 14.5312V18.75H9.46875Z" fill="#003A65"/>
</g>
<defs>
<clipPath id="clip0_259_1162">
<rect width="48" height="48" fill="white"/>
</clipPath>
</defs>
</svg>
