<svg width="48" height="48" viewBox="0 0 48 48" fill="none" xmlns="http://www.w3.org/2000/svg">
<g clip-path="url(#clip0_259_1199)">
<path d="M24.7062 0.190452C24.269 -0.0634839 23.7293 -0.0634839 23.292 0.190452L14.1211 5.5184L23.9992 11.1427L33.8774 5.5184L24.7062 0.190452Z" fill="#1893ED"/>
<path d="M12.7383 18.3931C12.7383 18.8983 13.0089 19.3647 13.4475 19.6152L22.5917 24.8404V13.5809L12.7383 7.9707V18.3931Z" fill="#1893ED"/>
<path d="M25.4062 24.8404L34.5504 19.6152C34.989 19.3647 35.2596 18.8982 35.2596 18.3931V7.9707L25.4062 13.5809V24.8404Z" fill="#1893ED"/>
<path d="M21.2037 33.7664L16.7365 29.3464C14.7133 27.3403 11.5951 27.1104 9.32091 28.6527C8.83482 28.9823 8.77288 29.6757 9.18813 30.091L14.79 35.6928C15.2798 36.1826 15.2534 36.9843 14.7326 37.4408C14.2564 37.8581 13.5378 37.833 13.092 37.3833L7.10813 31.346V17.5477C7.10813 15.967 5.82672 14.6855 4.24596 14.6855C2.6652 14.6855 1.38379 15.967 1.38379 17.5477V31.0828C1.38379 32.8401 2.08788 34.524 3.3386 35.7583L10.4182 42.7448V46.5917C10.4182 47.3691 11.0484 47.9993 11.8258 47.9993H21.1844C21.9618 47.9993 22.592 47.3691 22.592 46.5917V37.0981C22.592 35.8468 22.0922 34.6474 21.2037 33.7664Z" fill="#003A65"/>
<path d="M26.7955 33.7664L31.2628 29.3464C33.2859 27.3403 36.4042 27.1104 38.6783 28.6527C39.1644 28.9823 39.2263 29.6757 38.8111 30.091L33.2092 35.6928C32.7195 36.1826 32.7458 36.9843 33.2667 37.4408C33.7428 37.8581 34.4614 37.833 34.9072 37.3833L40.891 31.346V17.5477C40.891 15.967 42.1724 14.6855 43.7532 14.6855C45.3339 14.6855 46.6153 15.967 46.6153 17.5477V31.0828C46.6153 32.8401 45.9112 34.524 44.6605 35.7583L37.5809 42.7448V46.5917C37.5809 47.3691 36.9507 47.9993 36.1733 47.9993H26.8149C26.0375 47.9993 25.4072 47.3691 25.4072 46.5917V37.0981C25.4072 35.8468 25.907 34.6474 26.7955 33.7664Z" fill="#003A65"/>
</g>
<defs>
<clipPath id="clip0_259_1199">
<rect width="48" height="48" fill="white"/>
</clipPath>
</defs>
</svg>
