<svg width="31" height="28" viewBox="0 0 31 28" fill="none" xmlns="http://www.w3.org/2000/svg">
<path d="M14.0829 1.40039C11.3823 1.40039 8.74245 2.16283 6.49704 3.59128C4.25162 5.01974 2.50153 7.05006 1.46808 9.4255C0.434627 11.8009 0.164229 14.4148 0.691078 16.9366C1.21793 19.4583 2.51836 21.7747 4.42793 23.5928C6.3375 25.4109 8.77044 26.649 11.4191 27.1506C14.0677 27.6522 16.8131 27.3948 19.3081 26.4108C21.8031 25.4269 23.9356 23.7606 25.4359 21.6228C26.9362 19.485 27.7371 16.9715 27.7371 14.4004C27.7371 10.9526 26.2985 7.64597 23.7378 5.208C21.1772 2.77003 17.7042 1.40039 14.0829 1.40039V1.40039ZM7.39055 12.4213C7.39004 11.9952 7.56106 11.585 7.86844 11.2753L5.87242 10.8322C5.61919 10.775 5.39678 10.6314 5.2473 10.4285C5.09783 10.2257 5.03165 9.97772 5.06132 9.73154C5.09098 9.48536 5.21442 9.25808 5.40827 9.09274C5.60211 8.92739 5.8529 8.83546 6.11316 8.83434C6.19422 8.8351 6.27494 8.84428 6.35391 8.8617L11.2676 9.95302C11.522 10.0086 11.7459 10.1515 11.8967 10.3544C12.0474 10.5572 12.1144 10.8059 12.0849 11.0528C12.0553 11.2997 11.9313 11.5275 11.7365 11.6929C11.5416 11.8583 11.2897 11.9495 11.0287 11.9492C10.9562 11.9494 10.8838 11.942 10.8131 11.927C10.8661 12.0869 10.8927 12.2536 10.8921 12.4213C10.8776 12.8542 10.6867 13.2646 10.36 13.5659C10.0332 13.8672 9.5962 14.0357 9.14133 14.0357C8.68647 14.0357 8.24944 13.8672 7.9227 13.5659C7.59595 13.2646 7.40511 12.8542 7.39055 12.4213ZM20.0745 20.5583C20.0686 20.6889 20.0346 20.8171 19.9746 20.9347C19.9147 21.0524 19.8301 21.1571 19.726 21.2425C19.5328 21.3995 19.2839 21.4804 19.0301 21.4687C18.7764 21.4569 18.5369 21.3534 18.3606 21.1792C17.006 19.8501 15.5974 19.1762 14.1727 19.1762H14.0829C12.1533 19.2121 10.5597 20.4574 9.77104 21.1963C9.67949 21.284 9.57057 21.3534 9.4506 21.4007C9.33063 21.448 9.202 21.4721 9.07216 21.4717C8.84866 21.4711 8.63177 21.3995 8.45593 21.2681C8.34465 21.1851 8.25314 21.0806 8.18747 20.9614C8.12179 20.8422 8.08344 20.711 8.07495 20.5767C8.06646 20.4423 8.08802 20.3078 8.13821 20.1819C8.1884 20.0561 8.26608 19.9418 8.3661 19.8467C9.34884 18.911 11.3916 17.3339 14.0218 17.2809H14.1637C16.14 17.2809 18.039 18.1516 19.7835 19.8689C19.8796 19.9583 19.9551 20.0658 20.0052 20.1845C20.0553 20.3031 20.0789 20.4304 20.0745 20.5583V20.5583ZM22.2933 10.8322L20.2955 11.2753C20.4917 11.4729 20.634 11.7132 20.7101 11.9753C20.7862 12.2374 20.7938 12.5132 20.7322 12.7787C20.6707 13.0442 20.5418 13.2913 20.3568 13.4985C20.1718 13.7056 19.9364 13.8666 19.6711 13.9672C19.4058 14.0678 19.1186 14.1051 18.8347 14.0757C18.5508 14.0464 18.2787 13.9513 18.0423 13.7989C17.8058 13.6464 17.6122 13.4411 17.4782 13.201C17.3442 12.9609 17.274 12.6932 17.2736 12.4213C17.273 12.2536 17.2997 12.0869 17.3527 11.927C17.2819 11.942 17.2096 11.9494 17.1371 11.9492C16.8759 11.9499 16.6237 11.859 16.4285 11.6938C16.2333 11.5285 16.109 11.3006 16.0792 11.0536C16.0494 10.8066 16.1163 10.5578 16.267 10.3547C16.4178 10.1517 16.6418 10.0087 16.8964 9.95302L21.8083 8.8617C21.8872 8.84428 21.968 8.8351 22.049 8.83434C22.3094 8.83504 22.5605 8.92669 22.7547 9.0919C22.9489 9.25711 23.0726 9.4844 23.1025 9.73069C23.1324 9.97699 23.0664 10.2252 22.9169 10.4282C22.7674 10.6312 22.5449 10.775 22.2916 10.8322H22.2933Z" fill="#003A65"/>
<path d="M25.5748 0.642078L25.5866 0.638672C27.2185 0.166133 28.6759 0.967782 29.2041 2.04345M25.5748 0.642078L20.1007 6.25774C20.9387 7.3966 22.1362 8.55096 23.8746 9.89152L23.5686 10.2869C23.5687 10.287 23.5688 10.2871 23.5689 10.2872C23.7117 10.3976 23.887 10.4571 24.0669 10.4571C24.2467 10.4571 24.4218 10.3977 24.5644 10.2875C26.317 8.93681 27.5592 7.75835 28.4369 6.55261C29.5674 5.00913 29.903 3.46411 29.2041 2.04345M25.5748 0.642078L25.5632 0.646057C25.0054 0.837654 24.4972 1.14575 24.0721 1.54774M25.5748 0.642078L24.0721 1.54774M29.2041 2.04345C29.2041 2.04339 29.204 2.04333 29.204 2.04326L28.7554 2.264L29.2042 2.04364C29.2042 2.04358 29.2041 2.04351 29.2041 2.04345ZM24.0721 1.54774L23.9491 1.43548C23.5454 1.06691 23.0608 0.797286 22.5341 0.647791C20.9093 0.172699 19.4551 0.967404 18.9266 2.04343M24.0721 1.54774L18.9266 2.04343M18.9266 2.04343C18.9266 2.04338 18.9267 2.04332 18.9267 2.04326L19.3753 2.264L18.9265 2.04364C18.9266 2.04357 18.9266 2.0435 18.9266 2.04343Z" fill="#1893ED" stroke="white"/>
</svg>
