<svg width="32" height="29" viewBox="0 0 32 29" fill="none" xmlns="http://www.w3.org/2000/svg">
<g clip-path="url(#clip0_259_898)">
<path d="M14.3821 1.36719C11.5494 1.36719 8.78028 2.16938 6.42495 3.67231C4.06961 5.17525 2.23386 7.31143 1.14982 9.81073C0.065776 12.31 -0.217858 15.0602 0.334781 17.7134C0.88742 20.3666 2.25151 22.8038 4.25456 24.7167C6.2576 26.6295 8.80964 27.9322 11.5879 28.46C14.3662 28.9878 17.246 28.7169 19.8631 27.6816C22.4802 26.6464 24.7171 24.8933 26.2909 22.644C27.8647 20.3947 28.7047 17.7502 28.7047 15.045C28.7047 11.4174 27.1957 7.93841 24.5097 5.37333C21.8237 2.80824 18.1807 1.36719 14.3821 1.36719V1.36719ZM18.905 8.94218C20.5427 8.94218 21.9052 10.5817 22.1804 12.7378C22.1955 12.8583 22.0485 12.9177 21.9919 12.8206C21.2815 11.7263 20.1658 11.0208 18.9126 11.0208C17.6594 11.0208 16.5418 11.7245 15.8314 12.8206C15.7673 12.9213 15.6203 12.8583 15.6429 12.7378C15.9048 10.5817 17.2674 8.94218 18.905 8.94218ZM9.85922 8.94218C11.4988 8.94218 12.8613 10.5817 13.1346 12.7378C13.1385 12.76 13.1347 12.7829 13.1236 12.8028C13.1126 12.8228 13.095 12.8387 13.0735 12.8481C13.0521 12.8575 13.028 12.8599 13.0049 12.855C12.9819 12.85 12.9612 12.8379 12.9461 12.8206C12.2375 11.7263 11.1219 11.0208 9.86676 11.0208C8.61165 11.0208 7.49788 11.7245 6.78741 12.8206C6.72334 12.9213 6.57634 12.8583 6.59896 12.7378C6.85902 10.5817 8.21967 8.94218 9.85922 8.94218V8.94218ZM22.6364 18.5328C22.0353 21.8101 18.6525 24.0832 14.5706 24.0832C10.4887 24.0832 7.10778 21.8101 6.50661 18.5328C6.50108 18.4994 6.49731 18.4658 6.49531 18.4321C6.49531 17.9587 7.09836 17.6528 7.62603 17.8256C9.66134 18.4968 12.0378 18.8388 14.5725 18.8388C17.1072 18.8388 19.4836 18.4968 21.5189 17.8256C22.0447 17.6456 22.6496 17.9569 22.6496 18.4321C22.648 18.4659 22.6436 18.4996 22.6364 18.5328V18.5328Z" fill="#003A65"/>
<path d="M30.1231 2.79578L30.1227 2.79539C29.8275 2.50509 29.4796 2.27447 29.0979 2.116L29.0972 2.11573C28.7012 1.95067 28.2764 1.86621 27.8477 1.8672L27.8465 1.8672C27.2436 1.8672 26.6561 2.03279 26.1459 2.34506L26.1459 2.34507C26.0238 2.41979 25.9082 2.50163 25.7989 2.5906L25.4833 2.84743L25.1677 2.5906C25.0584 2.50163 24.9427 2.41979 24.8207 2.34507L24.8206 2.34506C24.3105 2.03279 23.723 1.8672 23.12 1.8672C22.685 1.8672 22.2656 1.95059 21.8694 2.11574L21.8688 2.11596C21.4856 2.27515 21.1406 2.5038 20.8437 2.79554L20.843 2.79621L20.843 2.7962C20.5488 3.08428 20.3136 3.42757 20.151 3.80668L30.1231 2.79578ZM30.1231 2.79578C30.4173 3.08447 30.6526 3.42803 30.8159 3.80728C30.9849 4.20164 31.0709 4.61889 31.0697 5.0489V5.05031C31.0697 5.4529 30.9877 5.88321 30.8164 6.33274L30.816 6.33387M30.1231 2.79578L30.816 6.33387M22.5875 9.57404L22.5876 9.57409C23.2241 10.1639 23.8596 10.6642 24.3435 11.0216C24.5851 11.2001 24.7879 11.3422 24.933 11.4413C25.0055 11.4908 25.0634 11.5295 25.1044 11.5565C25.1467 11.5844 25.1676 11.5976 25.1682 11.598L25.1682 11.598L25.1761 11.6029L25.1761 11.603L25.4826 11.8002L25.7891 11.603L25.7892 11.6029C25.8342 11.574 27.0998 10.7567 28.3777 9.57404H22.5875ZM22.5875 9.57404C21.819 8.8622 21.2117 8.17051 20.7766 7.5198L22.5875 9.57404ZM30.816 6.33387C30.674 6.70892 30.4635 7.10792 30.1885 7.5198M30.816 6.33387L30.1885 7.5198M30.1885 7.5198C29.7535 8.17047 29.1462 8.86211 28.3778 9.57391L30.1885 7.5198ZM19.8955 5.05031C19.8955 4.61914 19.9817 4.20124 20.1509 3.80672L20.1487 6.33249C19.9774 5.88305 19.8955 5.45283 19.8955 5.05031ZM20.7765 7.51955C20.5022 7.10872 20.2926 6.70937 20.1488 6.33274L20.7765 7.51955Z" fill="#1893ED" stroke="white"/>
</g>
<defs>
<clipPath id="clip0_259_898">
<rect width="31.5096" height="28.7234" fill="white" transform="translate(0.0595703)"/>
</clipPath>
</defs>
</svg>
