<svg width="60" height="60" viewBox="0 0 60 60" fill="none" xmlns="http://www.w3.org/2000/svg">
<path d="M20.9365 20.4918H29.0911V11.8281C24.6274 12.2736 21.1183 15.9645 20.9365 20.4918Z" fill="#003A65"/>
<path d="M21.8271 41.2364H23.0999C25.3635 41.2364 27.209 43.0818 27.209 45.3455V47.7636C27.8181 47.9636 28.4453 48.1 29.0908 48.1636V39.5H21.8271V41.2364Z" fill="#003A65"/>
<path d="M19.0367 37.6924L19.1003 37.6287V22.3105H12.4912C11.4549 24.6651 10.873 27.2651 10.873 30.0015C10.873 32.7378 11.4549 35.3378 12.4912 37.6924H19.0367Z" fill="#003A65"/>
<path d="M20.9362 37.6924H29.0907V22.3105H20.918L20.9362 37.6924Z" fill="#003A65"/>
<path d="M38.1728 18.7652H36.9001C34.6365 18.7652 32.791 16.9197 32.791 14.6561V12.2379C32.1819 12.0379 31.5546 11.9015 30.9092 11.8379V20.5015H38.1728V18.7652Z" fill="#003A65"/>
<path d="M40.964 22.3105L40.9004 22.3742V37.6924H47.5095C48.5458 35.3378 49.1277 32.7378 49.1277 30.0015C49.1277 27.2651 48.5458 24.6651 47.5095 22.3105H40.964Z" fill="#003A65"/>
<path d="M23.8274 11.9102C19.4001 13.4192 15.7092 16.5011 13.4092 20.5011H19.1183C19.2365 16.9283 21.0819 13.8102 23.8274 11.9102Z" fill="#003A65"/>
<path d="M44.5088 18.7656L42.7725 20.502H46.5816C46.2361 19.902 45.8543 19.3293 45.4543 18.7656H44.5088Z" fill="#003A65"/>
<path d="M36.1729 48.0909C40.6001 46.5818 44.291 43.5 46.591 39.5H40.8819C40.7638 43.0727 38.9183 46.1909 36.1729 48.0909Z" fill="#003A65"/>
<path d="M39.0637 22.3105H30.9092V37.6924H39.0819L39.0637 22.3105Z" fill="#003A65"/>
<path d="M15.4907 41.2364L17.2271 39.5H13.418C13.7634 40.1 14.1452 40.6727 14.5452 41.2364H15.4907Z" fill="#003A65"/>
<path d="M39.0637 39.5098H30.9092V48.1734C35.3728 47.7279 38.8819 44.037 39.0637 39.5098Z" fill="#003A65"/>
<path d="M23.1002 43.054H20.0093V39.2812L16.2365 43.054H4.10927C2.84563 43.054 1.81836 44.0813 1.81836 45.354V55.8903C1.81836 57.154 2.84563 58.1813 4.10927 58.1813H23.1002C24.3638 58.1813 25.3911 57.154 25.3911 55.8903V45.354C25.3911 44.0813 24.3638 43.054 23.1002 43.054ZM20.5365 54.2085H6.67291C6.17291 54.2085 5.76381 53.7994 5.76381 53.2994C5.76381 52.7994 6.17291 52.3903 6.67291 52.3903H20.5365C21.0365 52.3903 21.4456 52.7994 21.4456 53.2994C21.4456 53.7994 21.0365 54.2085 20.5365 54.2085ZM20.5365 48.854H6.67291C6.17291 48.854 5.76381 48.4449 5.76381 47.9449C5.76381 47.4449 6.17291 47.0358 6.67291 47.0358H20.5365C21.0365 47.0358 21.4456 47.4449 21.4456 47.9449C21.4456 48.4449 21.0365 48.854 20.5365 48.854Z" fill="#4DB4FF"/>
<path d="M55.8912 1.81836H36.9003C35.6366 1.81836 34.6094 2.84563 34.6094 4.10927V14.6456C34.6094 15.9093 35.6366 16.9365 36.9003 16.9365H39.9912V20.7093L43.7639 16.9365H55.8912C57.1548 16.9365 58.1821 15.9093 58.1821 14.6456V4.10927C58.1821 2.84563 57.1548 1.81836 55.8912 1.81836ZM53.3276 12.9638H39.4639C38.9639 12.9638 38.5548 12.5547 38.5548 12.0547C38.5548 11.5547 38.9639 11.1456 39.4639 11.1456H53.3276C53.8276 11.1456 54.2367 11.5547 54.2367 12.0547C54.2367 12.5547 53.8276 12.9638 53.3276 12.9638ZM53.3276 7.60927H39.4639C38.9639 7.60927 38.5548 7.20018 38.5548 6.70018C38.5548 6.20018 38.9639 5.79109 39.4639 5.79109H53.3276C53.8276 5.79109 54.2367 6.20018 54.2367 6.70018C54.2367 7.20018 53.8276 7.60927 53.3276 7.60927Z" fill="#4DB4FF"/>
</svg>
