<svg width="60" height="60" viewBox="0 0 60 60" fill="none" xmlns="http://www.w3.org/2000/svg">
<g clip-path="url(#clip0_259_1735)">
<g clip-path="url(#clip1_259_1735)">
<path d="M41.9321 23.8672C31.97 23.8672 23.8652 31.9719 23.8652 41.934C23.8652 51.8949 31.9699 60.0008 41.9321 60.0008C51.8932 60.0007 59.9991 51.8948 59.9991 41.9339C59.9991 31.9719 51.8932 23.8672 41.9321 23.8672ZM40.1954 49.8171C39.7982 50.7056 38.7559 51.098 37.8728 50.703C34.5411 49.2124 32.3884 45.8901 32.3884 42.2386C32.3884 40.1315 33.1079 38.1335 34.356 36.5339L34.1825 36.5081C33.2216 36.3675 32.5571 35.4745 32.6989 34.5136C32.8396 33.5526 33.7325 32.8893 34.6935 33.03C34.7181 33.0336 38.8607 33.6429 38.8607 33.6429C39.7375 33.7921 40.3489 34.5437 40.3489 35.3796V39.2526C40.3489 40.2229 39.5626 41.0104 38.5911 41.0104C37.7081 41.0104 36.8333 40.3599 36.8333 39.105C36.2392 40.0214 35.904 41.1042 35.904 42.2386C35.904 44.5061 37.2411 46.5686 39.3095 47.4944C40.1954 47.8905 40.5927 48.9311 40.1954 49.8171ZM49.6819 47.3596C50.6428 47.5014 51.3073 48.3944 51.1655 49.3542C51.0237 50.3244 50.1199 50.9786 49.1709 50.8378L45.0178 50.2272C44.4609 50.2272 43.5155 49.5574 43.5155 48.4882V44.6151C43.5155 43.6448 44.303 42.8573 45.2733 42.8573C46.135 42.8573 47.0311 43.4871 47.0311 44.7628C47.6252 43.8464 47.9604 42.7636 47.9604 41.6292C47.9604 39.3616 46.6245 37.2991 44.5549 36.3733C43.669 35.9772 43.2729 34.9378 43.669 34.0507C44.0651 33.1647 45.1057 32.7686 45.9916 33.1647C49.3233 34.6554 51.476 37.9788 51.476 41.6292C51.476 43.7362 50.7577 45.7343 49.5084 47.3339L49.6819 47.3596Z" fill="#4DB4FF"/>
<path d="M50.7795 14.8677C51.4651 15.5544 51.4651 16.6677 50.7795 17.3544L47.1455 20.9873C45.4756 20.5712 43.7295 20.3509 41.933 20.3509C30.0326 20.3509 20.3505 30.033 20.3505 41.9333C20.3505 43.7298 20.5708 45.4759 20.9868 47.1458L17.354 50.7798C16.6673 51.4654 15.554 51.4654 14.8673 50.7798L11.3423 47.2537L7.81846 50.7798C7.13291 51.4654 6.01846 51.4654 5.33174 50.7798L0.51416 45.9634C-0.171387 45.2767 -0.171387 44.1634 0.51416 43.4767L4.04033 39.9529L0.51416 36.4279C-0.171387 35.7412 -0.171387 34.6279 0.51416 33.9412L4.04033 30.4162L0.51416 26.8912C-0.171387 26.2044 -0.171387 25.0912 0.51416 24.4044L4.04033 20.8794L0.51416 17.3544C-0.171387 16.6677 -0.171387 15.5544 0.51416 14.8677L4.04033 11.3427L0.51416 7.8189C-0.171387 7.13218 -0.171387 6.0189 0.51416 5.33218L5.33174 0.5146C6.01729 -0.169775 7.13057 -0.17329 7.81846 0.5146L11.3423 4.04077L14.8673 0.5146C15.554 -0.170946 16.6673 -0.170946 17.354 0.5146L20.879 4.04077L24.404 0.5146C25.0907 -0.170946 26.204 -0.170946 26.8907 0.5146L30.4157 4.04077L33.9407 0.5146C34.6274 -0.170946 35.7407 -0.170946 36.4274 0.5146L39.9524 4.04077L43.4763 0.5146C44.163 -0.170946 45.2763 -0.170946 45.963 0.5146L50.7794 5.33218C51.4649 6.0189 51.4649 7.13218 50.7794 7.8189L47.2532 11.3427L50.7795 14.8677Z" fill="#003A65"/>
</g>
</g>
<defs>
<clipPath id="clip0_259_1735">
<rect width="60" height="60" fill="white"/>
</clipPath>
<clipPath id="clip1_259_1735">
<rect width="60" height="60" fill="white"/>
</clipPath>
</defs>
</svg>
