<svg width="60" height="60" viewBox="0 0 60 60" fill="none" xmlns="http://www.w3.org/2000/svg">
<g clip-path="url(#clip0_259_1787)">
<g clip-path="url(#clip1_259_1787)">
<path d="M28.0513 23.2593H37.8072V18.158H24.2919C23.4031 18.158 22.6817 17.4367 22.6817 16.5477V3.03352L1.61027 3C0.721344 3 0 3.72134 0 4.61027V50.4486C0 51.3375 0.721344 52.0589 1.61027 52.0589L36.1971 52.0924C37.0859 52.0924 37.8073 51.371 37.8073 50.4822V41.5088H28.0513C25.388 41.5088 23.2206 39.3414 23.2206 36.6781V28.0901C23.2206 25.4267 25.388 23.2593 28.0513 23.2593ZM16.7668 42.0401H6.52658C5.63776 42.0401 4.91631 41.3188 4.91631 40.4299C4.91631 39.54 5.63765 38.8196 6.52658 38.8196H16.7667C17.6555 38.8196 18.3769 39.5399 18.3769 40.4299C18.377 41.3188 17.6556 42.0401 16.7668 42.0401ZM16.7668 35.5992H6.52658C5.63776 35.5992 4.91631 34.8778 4.91631 33.9889C4.91631 33.099 5.63765 32.3786 6.52658 32.3786H16.7667C17.6555 32.3786 18.3769 33.0989 18.3769 33.9889C18.377 34.8778 17.6556 35.5992 16.7668 35.5992ZM16.7668 29.1582H6.52658C5.63776 29.1582 4.91631 28.4369 4.91631 27.5479C4.91631 26.658 5.63765 25.9377 6.52658 25.9377H16.7667C17.6555 25.9377 18.3769 26.6579 18.3769 27.5479C18.377 28.4367 17.6556 29.1582 16.7668 29.1582ZM16.7668 22.7172H6.52658C5.63776 22.7172 4.91631 21.9959 4.91631 21.107C4.91631 20.2171 5.63765 19.4967 6.52658 19.4967H16.7667C17.6555 19.4967 18.3769 20.217 18.3769 21.107C18.377 21.9958 17.6556 22.7172 16.7668 22.7172ZM16.7668 16.2762H6.52658C5.63776 16.2762 4.91631 15.5548 4.91631 14.6659C4.91631 13.776 5.63765 13.0556 6.52658 13.0556H16.7667C17.6555 13.0556 18.3769 13.7759 18.3769 14.6659C18.377 15.5548 17.6556 16.2762 16.7668 16.2762Z" fill="#003A65"/>
<path d="M25.9023 3.0332C26.3403 3.0332 26.7494 3.21249 27.0413 3.50446L37.3071 13.7713C37.6517 14.1159 37.8074 14.5281 37.8074 14.9372H25.9023V3.0332Z" fill="#003A65"/>
<path d="M54.4759 33.5766L44.2711 42.8816C43.2473 43.8147 41.5756 43.1005 41.5756 41.6912V38.2882H28.0517C27.1629 38.2882 26.4414 37.5678 26.4414 36.678V28.0899C26.4414 27.2011 27.1628 26.4797 28.0517 26.4797H41.5745L41.5734 23.0777C41.5734 21.6811 43.2358 20.9458 44.269 21.8872L54.4757 31.1966C55.175 31.835 55.1755 32.9377 54.4759 33.5766Z" fill="#4DB4FF"/>
</g>
</g>
<defs>
<clipPath id="clip0_259_1787">
<rect width="60" height="60" fill="white"/>
</clipPath>
<clipPath id="clip1_259_1787">
<rect width="60" height="60" fill="white"/>
</clipPath>
</defs>
</svg>
