<svg width="60" height="60" viewBox="0 0 60 60" fill="none" xmlns="http://www.w3.org/2000/svg">
<path d="M52.9688 10.6699H52.8457C51.8749 10.6699 51.0879 11.457 51.0879 12.4277C51.0879 13.3985 51.8749 14.1855 52.8457 14.1855H52.9688C54.9073 14.1855 56.4844 15.7627 56.4844 17.7012C56.4844 19.6397 54.9073 21.2168 52.9688 21.2168H50.7568C47.5661 14.9704 41.0692 10.6641 33.5215 10.6641C25.4829 10.7691 23.7247 10.3896 20.4188 11.1205C16.0514 7.19648 10.7761 7.14844 10.5413 7.14844H10.5411C9.46828 7.14844 8.64984 8.10012 8.80113 9.15551L9.97664 17.3613C8.54227 19.0232 7.39125 20.9319 6.59355 22.9688H1.75781C0.787031 22.9688 0 23.7558 0 24.7266V35.2734C0 36.2442 0.787031 37.0312 1.75781 37.0312H6.5932C7.37426 39.0275 8.49012 40.8913 9.88371 42.5297L8.57004 43.8435C7.88391 44.5295 7.88367 45.6431 8.57004 46.3294L13.542 51.3012C14.2284 51.9877 15.3414 51.9877 16.0279 51.3012L18.8624 48.4666C22.8264 49.7005 25.5898 49.2316 28.298 49.3359V47.0591C28.0434 47.0591 26.7409 47.0591 26.4861 47.0591C24.7584 47.0591 22.971 45.7192 22.9705 43.4771V37.6166C22.971 35.3745 24.7584 34.0346 26.4861 34.0346H28.2393V29.9663C28.2393 27.0585 30.6049 24.6928 33.5127 24.6928C39.6707 24.7024 41.1027 24.6649 52.9688 24.7324C56.8458 24.7324 60 21.5782 60 17.7012C60 13.8241 56.8458 10.6699 52.9688 10.6699ZM17.5781 24.7324C16.6073 24.7324 15.8203 23.9454 15.8203 22.9746C15.8203 22.0038 16.6073 21.2168 17.5781 21.2168C18.5489 21.2168 19.3359 22.0038 19.3359 22.9746C19.3359 23.9454 18.5489 24.7324 17.5781 24.7324Z" fill="#003A65"/>
<path d="M31.8145 51.0932C31.8145 52.064 32.6015 52.851 33.5723 52.851H54.5546C55.5253 52.851 56.3124 52.064 56.3124 51.0932V47.0254H31.8145V51.0932Z" fill="#4DB4FF"/>
<path d="M51.1 37.584H26.4865C26.4863 37.0094 26.4863 44.0854 26.4865 43.5109H51.1V37.584Z" fill="#4DB4FF"/>
<path d="M54.6113 28.209H33.5117C32.5409 28.209 31.7539 28.996 31.7539 29.9668V34.0684H56.3691V29.9668C56.3691 28.996 55.5821 28.209 54.6113 28.209Z" fill="#4DB4FF"/>
</svg>
