<svg width="60" height="60" viewBox="0 0 60 60" fill="none" xmlns="http://www.w3.org/2000/svg">
<path fill-rule="evenodd" clip-rule="evenodd" d="M7.11655 2C4.30237 2 2 4.30248 2 7.11655V44.521C2 47.3351 4.30237 49.6375 7.11655 49.6375H25.9582C24.1167 45.2373 24.6738 40.4764 27.0202 36.3566C27.4995 35.5151 28.0252 34.6811 28.5858 33.8571C28.2616 33.6473 28.0462 33.2825 28.0462 32.8689V31.3398C28.0462 30.6919 28.5745 30.1635 29.2224 30.1635H31.3557C32.3093 28.9915 33.3014 27.8506 34.2943 26.7493C34.0011 26.4712 33.749 26.1503 33.5479 25.7968H29.2224C28.5745 25.7968 28.0462 25.2685 28.0462 24.6206V23.0913C28.0462 22.4435 28.5745 21.9151 29.2224 21.9151H33.4639C33.8294 21.2033 34.3974 20.6114 35.0908 20.2159L33.8684 18.9937C33.1245 18.2497 32.7223 17.2903 32.6613 16.3133H8.82203C8.17416 16.3133 7.64581 15.785 7.64581 15.1371V10.5203C7.64581 9.87244 8.17416 9.34408 8.82203 9.34408H34.6993C35.3472 9.34408 35.8755 9.87244 35.8755 10.5203V12.0005C36.7056 11.8101 37.5884 11.8734 38.3953 12.2044C38.9409 10.8985 40.1243 9.94964 41.5214 9.7051V7.11655C41.5214 4.30248 39.219 2 36.4049 2H7.11655ZM9.90271 21.9151H14.2989C14.9468 21.9151 15.4751 22.4435 15.4751 23.0913V24.6205C15.4751 25.2683 14.9468 25.7967 14.2989 25.7967H9.90271C9.25484 25.7967 8.72649 25.2683 8.72649 24.6205V23.0913C8.72649 22.4435 9.25484 21.9151 9.90271 21.9151ZM19.5626 38.4118C18.9147 38.4118 18.3863 38.9402 18.3863 39.5881V41.1172C18.3863 41.7651 18.9147 42.2934 19.5626 42.2934H23.9588C24.6066 42.2934 25.135 41.7651 25.135 41.1172V39.5881C25.135 38.9402 24.6066 38.4118 23.9588 38.4118H19.5626ZM9.90271 38.4118H14.2989C14.9468 38.4118 15.4751 38.9402 15.4751 39.5881V41.1172C15.4751 41.7651 14.9468 42.2934 14.2989 42.2934H9.90271C9.25484 42.2934 8.72649 41.7651 8.72649 41.1172V39.5881C8.72649 38.9402 9.25484 38.4118 9.90271 38.4118ZM19.5626 30.1634C18.9147 30.1634 18.3863 30.6918 18.3863 31.3396V32.8688C18.3863 33.5167 18.9147 34.045 19.5626 34.045H23.9588C24.6066 34.045 25.135 33.5167 25.135 32.8688V31.3396C25.135 30.6918 24.6066 30.1634 23.9588 30.1634H19.5626ZM9.90271 30.1634H14.2989C14.9468 30.1634 15.4751 30.6918 15.4751 31.3396V32.8688C15.4751 33.5167 14.9468 34.045 14.2989 34.045H9.90271C9.25484 34.045 8.72649 33.5167 8.72649 32.8688V31.3396C8.72649 30.6919 9.25484 30.1634 9.90271 30.1634ZM19.5626 21.9151H23.9588C24.6066 21.9151 25.135 22.4435 25.135 23.0913V24.6205C25.135 25.2683 24.6066 25.7967 23.9588 25.7967H19.5626C18.9147 25.7967 18.3863 25.2683 18.3863 24.6205V23.0913C18.3863 22.4435 18.9147 21.9151 19.5626 21.9151Z" fill="#003A65"/>
<path fill-rule="evenodd" clip-rule="evenodd" d="M48.8392 27.8688C52.1009 31.4831 54.5324 34.6189 56.1338 37.4305C61.9983 47.7276 53.6555 58.1861 42.4827 57.9979C31.3098 58.1861 22.967 47.7276 28.8315 37.4305C30.4329 34.6189 32.8646 31.4831 36.1261 27.8688C36.5153 27.9921 36.9295 28.0588 37.3587 28.0588H47.6065C48.0358 28.0588 48.45 27.9921 48.8392 27.8688ZM37.3588 26.2583C36.0952 26.2583 35.0617 25.2246 35.0617 23.9612C35.0617 22.6979 36.0954 21.6642 37.3588 21.6642H47.6066C48.8701 21.6642 49.9037 22.6979 49.9037 23.9613C49.9037 25.2245 48.8701 26.2583 47.6066 26.2583H37.3588ZM42.3648 47.1955C41.6745 47.1775 41.0044 46.9906 40.4702 46.6348C39.9867 46.3128 39.6174 45.8419 39.4631 45.2231C39.3257 44.6646 38.7616 44.3232 38.203 44.4606C37.6445 44.598 37.3031 45.1621 37.4405 45.7207C37.7318 46.8893 38.4209 47.773 39.3203 48.372C39.9346 48.7812 40.6481 49.0516 41.3952 49.1834V49.9937C41.3952 50.5703 41.8626 51.0377 42.4392 51.0377C43.0157 51.0377 43.4831 50.5704 43.4831 49.9937V49.2033C44.391 49.0649 45.3161 48.7335 46.0424 48.1825C46.9152 47.5202 47.4958 46.5719 47.4655 45.2992C47.462 45.1535 47.4537 45.0253 47.4404 44.9158C47.2712 43.5213 46.5167 42.6135 45.5163 42.0096C44.6376 41.479 43.5838 41.2147 42.6177 41.0562C41.9209 40.9417 41.1869 40.7481 40.6494 40.3973C40.233 40.1254 39.9343 39.7317 39.9063 39.1562C39.876 38.5334 40.1479 38.031 40.5763 37.6827C40.9119 37.4099 41.34 37.2203 41.8041 37.1269C41.9908 37.0893 42.183 37.0676 42.377 37.0625C42.3976 37.0637 42.4182 37.0644 42.4391 37.0644C42.4642 37.0644 42.4891 37.0635 42.5138 37.0617C42.7704 37.0654 43.0289 37.0984 43.2813 37.1623C44.0574 37.359 44.7639 37.8705 45.136 38.7567C45.359 39.2882 45.9707 39.5383 46.5021 39.3153C47.0336 39.0924 47.2837 38.4807 47.0607 37.9493C46.4055 36.3889 45.1582 35.4872 43.7869 35.1397C43.6863 35.1142 43.5851 35.0918 43.4831 35.0725V34.2636C43.4831 33.6871 43.0157 33.2196 42.4392 33.2196C41.8627 33.2196 41.3952 33.6871 41.3952 34.2636V35.0882C40.6042 35.2476 39.8615 35.5815 39.2632 36.0679C38.3438 36.8155 37.7608 37.9009 37.8265 39.2542C37.8924 40.614 38.571 41.5261 39.5158 42.1428C40.3393 42.6804 41.3507 42.9586 42.2834 43.1116C43.0324 43.2346 43.8322 43.429 44.4398 43.7958C44.9258 44.0892 45.2909 44.5181 45.3689 45.1607C45.3792 45.2463 45.3848 45.3085 45.3857 45.3483C45.3979 45.8592 45.1535 46.2484 44.7864 46.527C44.3269 46.8756 43.6816 47.0812 43.0363 47.1595C42.8607 47.1808 42.7072 47.193 42.5771 47.196L42.5273 47.1969C42.4982 47.1944 42.4688 47.1932 42.4391 47.1932C42.4141 47.1928 42.3894 47.1939 42.3648 47.1955ZM37.349 19.8638L35.3885 17.9033C34.4704 16.9852 34.4704 15.483 35.3885 14.565C36.1693 13.7841 37.4054 13.6522 38.3345 14.2486C38.6796 14.47 39.076 14.5054 39.4547 14.3486C39.8333 14.1917 40.0886 13.8866 40.176 13.4859C40.4074 12.4263 41.3561 11.6265 42.4827 11.6263C43.5888 11.6263 44.5537 12.406 44.7894 13.4859C44.8769 13.8866 45.1321 14.1917 45.5108 14.3486C45.8897 14.5056 46.2859 14.47 46.6308 14.2486C47.5436 13.6627 48.7803 13.7684 49.5768 14.5648C50.4949 15.4829 50.4949 16.9853 49.5768 17.9033L47.6163 19.8638L47.6065 19.8636H37.3587L37.349 19.8638Z" fill="#4DB4FF"/>
</svg>
