<svg width="60" height="60" viewBox="0 0 60 60" fill="none" xmlns="http://www.w3.org/2000/svg">
<path d="M8.4375 28.125H12.1875V31.875H8.4375V28.125Z" fill="#4DB4FF"/>
<path d="M30.9375 47.8125C30.9375 48.0611 30.8387 48.2996 30.6629 48.4754C30.4871 48.6512 30.2486 48.75 30 48.75H24.375C24.1264 48.75 23.8879 48.6512 23.7121 48.4754C23.5363 48.2996 23.4375 48.0611 23.4375 47.8125V43.125H19.6875V56.25H34.6875V43.125H30.9375V47.8125ZM32.8125 54.375H30.9375V52.5H32.8125V54.375Z" fill="#4DB4FF"/>
<path d="M25.3125 43.125H29.0625V46.875H25.3125V43.125Z" fill="#4DB4FF"/>
<path d="M14.0625 32.8125C14.0625 33.0611 13.9637 33.2996 13.7879 33.4754C13.6121 33.6512 13.3736 33.75 13.125 33.75H7.5C7.25136 33.75 7.0129 33.6512 6.83709 33.4754C6.66127 33.2996 6.5625 33.0611 6.5625 32.8125V28.125H2.8125V41.25H17.8125V28.125H14.0625V32.8125ZM15.9375 39.375H14.0625V37.5H15.9375V39.375Z" fill="#4DB4FF"/>
<path d="M14.0625 47.8125C14.0625 48.0611 13.9637 48.2996 13.7879 48.4754C13.6121 48.6512 13.3736 48.75 13.125 48.75H7.5C7.25136 48.75 7.0129 48.6512 6.83709 48.4754C6.66127 48.2996 6.5625 48.0611 6.5625 47.8125V43.125H2.8125V56.25H17.8125V43.125H14.0625V47.8125ZM15.9375 54.375H14.0625V52.5H15.9375V54.375Z" fill="#4DB4FF"/>
<path d="M8.4375 43.125H12.1875V46.875H8.4375V43.125Z" fill="#4DB4FF"/>
<path d="M19.6875 41.25H35.625C35.8736 41.25 36.1121 41.3488 36.2879 41.5246C36.4637 41.7004 36.5625 41.9389 36.5625 42.1875V56.25H45V35.625H19.6875V41.25Z" fill="#003A65"/>
<path d="M26.25 13.125C26.2503 13.3736 26.3491 13.6118 26.5249 13.7876C26.7007 13.9634 26.9389 14.0622 27.1875 14.0625H30.9375C31.1861 14.0625 31.4246 13.9637 31.6004 13.7879C31.7762 13.6121 31.875 13.3736 31.875 13.125C31.875 12.8764 31.7762 12.6379 31.6004 12.4621C31.4246 12.2863 31.1861 12.1875 30.9375 12.1875H27.1875C26.9389 12.1878 26.7007 12.2866 26.5249 12.4624C26.3491 12.6382 26.2503 12.8764 26.25 13.125Z" fill="#003A65"/>
<path d="M13.125 20.625H45V22.5H13.125V20.625Z" fill="#003A65"/>
<path d="M5.625 12.2472V26.2505H11.25V19.688C11.25 19.4394 11.3488 19.2009 11.5246 19.0251C11.7004 18.8493 11.9389 18.7505 12.1875 18.7505H45.9375C46.1861 18.7505 46.4246 18.8493 46.6004 19.0251C46.7762 19.2009 46.875 19.4394 46.875 19.688V56.2505H52.5V12.2472L29.0625 6.58984L5.625 12.2472ZM33.75 13.1255C33.7491 13.8712 33.4525 14.586 32.9253 15.1133C32.398 15.6405 31.6832 15.9371 30.9375 15.938H27.1875C26.4416 15.938 25.7262 15.6417 25.1988 15.1142C24.6713 14.5868 24.375 13.8714 24.375 13.1255C24.375 12.3796 24.6713 11.6642 25.1988 11.1368C25.7262 10.6093 26.4416 10.313 27.1875 10.313H30.9375C31.6832 10.3139 32.398 10.6105 32.9253 11.1377C33.4525 11.665 33.7491 12.3799 33.75 13.1255Z" fill="#003A65"/>
<path d="M19.6875 31.875H45V33.75H19.6875V31.875Z" fill="#003A65"/>
<path d="M29.0625 2.83984L2.8125 9.17629V10.9974L28.8425 4.71426C28.9871 4.67926 29.1379 4.67926 29.2825 4.71426L55.3125 10.9973V9.17629L29.0625 2.83984Z" fill="#003A65"/>
<path d="M19.6875 28.125H45V30H19.6875V28.125Z" fill="#003A65"/>
<path d="M13.125 26.25H18.75H45V24.375H13.125V26.25Z" fill="#003A65"/>
</svg>
