<svg width="60" height="60" viewBox="0 0 60 60" fill="none" xmlns="http://www.w3.org/2000/svg">
<path d="M11.9054 6.85714H24.9502C25.3157 6.85831 25.6501 6.65148 25.8123 6.32389L27.4747 3H9.38086L11.0433 6.32389C11.2055 6.65148 11.5398 6.85831 11.9054 6.85714Z" fill="#003A65"/>
<path d="M6.85714 57H30C32.1302 57 33.8571 55.2731 33.8571 53.1429V50.25H26.1429C22.9488 50.2468 20.3603 47.6583 20.3571 44.4643V38.2929L9.80304 32.6643C9.1773 32.3283 8.7869 31.6755 8.7869 30.9653C8.7869 30.255 9.1773 29.6022 9.80304 29.2662L20.3571 23.6357V17.4643C20.3603 14.2702 22.9488 11.6818 26.1429 11.6786H33.8571V6.85714C33.8571 4.7269 32.1302 3 30 3H29.6316L27.5382 7.18693C27.0511 8.16947 26.0477 8.78954 24.951 8.78571H11.9061C10.8095 8.78954 9.80608 8.16947 9.31896 7.18693L7.2255 3H6.85714C4.7269 3 3 4.7269 3 6.85714V53.1429C3 55.2731 4.7269 57 6.85714 57ZM10.7143 53.1429H26.1429C26.6754 53.1429 27.1071 53.5746 27.1071 54.1071C27.1071 54.6397 26.6754 55.0714 26.1429 55.0714H10.7143C10.1817 55.0714 9.75 54.6397 9.75 54.1071C9.75 53.5746 10.1817 53.1429 10.7143 53.1429Z" fill="#003A65"/>
<path d="M53.1434 13.6074H26.1434C24.0132 13.6074 22.2863 15.3343 22.2863 17.4646V24.2146C22.2862 24.5705 22.0901 24.8974 21.7762 25.0651L10.7148 30.9646L21.7791 36.8621C22.0925 37.0309 22.2875 37.3586 22.2863 37.7146V44.4646C22.2863 46.5948 24.0132 48.3217 26.1434 48.3217H53.1434C55.2737 48.3217 57.0006 46.5948 57.0006 44.4646V17.4646C57.0006 15.3343 55.2737 13.6074 53.1434 13.6074ZM53.1434 28.0717V41.5717C53.1434 43.1694 51.8482 44.4646 50.2506 44.4646H29.0363C27.4386 44.4646 26.1434 43.1694 26.1434 41.5717V20.3574C26.1421 19.5378 26.4934 18.7573 27.1077 18.2148C27.6294 17.7248 28.3206 17.4559 29.0363 17.4646H50.2506C51.8421 17.4792 53.1288 18.7658 53.1434 20.3574V28.0717Z" fill="#4DB4FF"/>
<path d="M47.0957 23.255L51.2151 26.198V20.3573L51.2142 20.3516L47.0957 23.255Z" fill="#4DB4FF"/>
<path d="M28.0723 41.5709C28.0723 42.1034 28.504 42.5352 29.0366 42.5352H50.2508C50.7834 42.5352 51.2151 42.1034 51.2151 41.5709V29.0352H28.0723V41.5709ZM32.8937 30.9637C33.4263 30.9637 33.858 31.3955 33.858 31.928C33.858 35.1234 36.4483 37.7137 39.6437 37.7137C42.8391 37.7137 45.4294 35.1234 45.4294 31.928C45.4294 31.3955 45.8611 30.9637 46.3937 30.9637C46.9263 30.9637 47.358 31.3955 47.358 31.928C47.358 36.1885 43.9042 39.6423 39.6437 39.6423C35.3832 39.6423 31.9294 36.1885 31.9294 31.928C31.9294 31.3955 32.3611 30.9637 32.8937 30.9637Z" fill="#4DB4FF"/>
<path d="M34.8222 23.2517C34.8232 23.5642 34.6726 23.8579 34.4182 24.0395L30.1174 27.1088H49.1698L44.8691 24.0366C44.6148 23.855 44.4643 23.5614 44.4653 23.249C44.4663 22.9365 44.6185 22.6439 44.8739 22.4639L49.2267 19.3945H30.0605L34.4133 22.4639C34.6696 22.6444 34.822 22.9382 34.8222 23.2517Z" fill="#4DB4FF"/>
<path d="M28.0732 20.3516L28.0723 20.3573V26.198L32.1917 23.255L28.0732 20.3516Z" fill="#4DB4FF"/>
</svg>
