<svg width="60" height="60" viewBox="0 0 60 60" fill="none" xmlns="http://www.w3.org/2000/svg">
<g clip-path="url(#clip0_259_1758)">
<path d="M18.7557 37.806C18.7557 37.1066 18.1418 36.5391 17.3837 36.5391C16.6257 36.5391 16.0117 37.1066 16.0117 37.806C16.0117 38.5059 16.6257 39.0729 17.3837 39.0729C18.1418 39.0729 18.7557 38.5059 18.7557 37.806Z" fill="#003A65"/>
<path d="M17.3837 27.543C16.6272 27.543 16.0117 28.111 16.0117 28.8099C16.0117 29.5083 16.6272 30.0768 17.3837 30.0768C18.1402 30.0768 18.7563 29.5083 18.7563 28.8099C18.7563 28.111 18.1402 27.543 17.3837 27.543Z" fill="#003A65"/>
<path d="M18.7557 19.8157C18.7557 19.1158 18.1418 18.5488 17.3837 18.5488C16.6257 18.5488 16.0117 19.1158 16.0117 19.8157C16.0117 20.5151 16.6257 21.0826 17.3837 21.0826C18.1418 21.0826 18.7557 20.5151 18.7557 19.8157Z" fill="#003A65"/>
<path d="M32.6307 56.4645C31.1228 54.9667 30.2743 52.9291 30.2723 50.8037V47.1758H0V50.8188C0.0151604 54.238 2.78951 57.0032 6.20868 57.0078H33.2437C33.0218 56.8476 32.8162 56.6657 32.6307 56.4645Z" fill="#003A65"/>
<path d="M34.9938 20.656H24.0258C23.5255 20.656 23.1202 20.2507 23.1202 19.7504C23.1202 19.2507 23.5255 18.8449 24.0258 18.8449H34.0013C33.1261 16.9478 32.6758 14.8824 32.6819 12.7928C32.6849 11.7837 32.7895 10.7775 32.9942 9.78906H8.62235L8.38281 45.3654H31.224C31.4544 45.3563 31.6778 45.4433 31.841 45.606C32.0042 45.7687 32.0916 45.9921 32.083 46.2225V50.8055C32.0997 54.2322 34.8791 57.0025 38.3059 57.0086H38.3261C41.7397 57.0015 44.5024 54.2327 44.5024 50.8196V27.1593C40.5643 26.4134 37.1168 24.056 34.9938 20.656ZM17.3825 40.885C15.6275 40.885 14.1993 39.5039 14.1993 37.8065C14.1993 36.1095 15.6275 34.7284 17.3825 34.7284C19.1376 34.7284 20.5662 36.1095 20.5662 37.8065C20.5662 39.5039 19.1381 40.885 17.3825 40.885ZM17.3825 31.8889C15.6275 31.8889 14.1993 30.5083 14.1993 28.8108C14.1993 27.1133 15.6275 25.7327 17.3825 25.7327C19.1376 25.7327 20.5662 27.1133 20.5662 28.8108C20.5662 30.5077 19.1381 31.8889 17.3825 31.8889ZM17.3825 22.8932C15.6275 22.8932 14.1993 21.5121 14.1993 19.8151C14.1993 18.1177 15.6275 16.7366 17.3825 16.7366C19.1376 16.7366 20.5662 18.1172 20.5662 19.8146C20.5662 21.5121 19.1381 22.8932 17.3825 22.8932ZM37.8238 38.7676H24.0258C23.5255 38.7676 23.1202 38.3623 23.1202 37.8621C23.1202 37.3623 23.5255 36.9565 24.0258 36.9565H37.8238C38.3241 36.9565 38.7294 37.3623 38.7294 37.8621C38.7294 38.3623 38.3241 38.7676 37.8238 38.7676ZM38.7294 28.8062C38.7294 29.3065 38.3241 29.7118 37.8238 29.7118H24.0258C23.5255 29.7118 23.1202 29.3065 23.1202 28.8062C23.1202 28.3065 23.5255 27.9007 24.0258 27.9007H37.8238C38.3241 27.9007 38.7294 28.3065 38.7294 28.8062Z" fill="#003A65"/>
<path d="M47.2471 0.101562C40.2035 0.101562 34.4936 5.81147 34.4941 12.855C34.4941 19.8985 40.204 25.6084 47.2476 25.6084C54.2911 25.6084 60.0005 19.8985 60.0005 12.855C59.9929 5.81501 54.2875 0.109648 47.2471 0.101562ZM47.1879 11.9428C49.3791 11.9433 51.2115 13.6079 51.4207 15.789C51.6299 17.9706 50.1477 19.9536 47.9965 20.37V21.5626C47.9965 22.0629 47.5912 22.4682 47.0909 22.4682C46.5906 22.4682 46.1853 22.0629 46.1853 21.5626V20.3275C44.2797 19.8631 42.938 18.1571 42.9354 16.1958C42.9354 15.6955 43.3407 15.2902 43.841 15.2902C44.3408 15.2902 44.7466 15.6955 44.7466 16.1958C44.7466 17.5441 45.8397 18.6372 47.1879 18.6372C48.5362 18.6372 49.6293 17.5441 49.6293 16.1958C49.6293 14.8471 48.5362 13.754 47.1879 13.754C45.0347 13.754 43.2215 12.1445 42.9658 10.0069C42.7101 7.86873 44.0927 5.87716 46.1853 5.36929V4.22721C46.1853 3.72742 46.5906 3.32163 47.0909 3.32163C47.5912 3.32163 47.9965 3.72742 47.9965 4.22721V5.32684C49.9946 5.71646 51.4379 7.46597 51.4404 9.50151C51.4404 10.0018 51.0351 10.4071 50.5348 10.4071C50.0351 10.4071 49.6293 10.0018 49.6293 9.50151C49.6277 8.16992 48.5594 7.08443 47.2273 7.0622C47.1824 7.06927 47.1369 7.07332 47.0909 7.07332C47.0626 7.07332 47.0348 7.0718 47.007 7.06927C45.6982 7.16681 44.7006 8.2816 44.7496 9.59348C44.7981 10.9049 45.8755 11.9428 47.1884 11.9428H47.1879Z" fill="#4DB4FF"/>
</g>
<defs>
<clipPath id="clip0_259_1758">
<rect width="60" height="60" fill="white"/>
</clipPath>
</defs>
</svg>
