<svg width="60" height="60" viewBox="0 0 60 60" fill="none" xmlns="http://www.w3.org/2000/svg">
<path fill-rule="evenodd" clip-rule="evenodd" d="M6.95039 3H34.6056V8.41805C34.6056 9.71461 35.6592 10.7682 36.9558 10.7682H42.3738V27.9567C40.3167 26.7655 37.9282 26.0832 35.3803 26.0832C27.6612 26.0832 21.4024 32.342 21.4024 40.0611C21.4024 44.0231 23.0516 47.6 25.7005 50.1437H6.95039C6.42691 50.1437 6 49.7167 6 49.1932V3.95039C5.99988 3.42691 6.4268 3 6.95039 3ZM36.4805 3.08238V8.41805C36.4805 8.67973 36.694 8.89324 36.9557 8.89324H42.2913C42.2453 8.79234 42.1799 8.69941 42.0954 8.6148L36.7588 3.27832C36.6743 3.19383 36.5814 3.12844 36.4805 3.08238ZM25.6275 11.2663L25.2179 8.70738H22.842L22.4324 11.2663C21.8353 11.4189 21.2719 11.6552 20.7548 11.9618L18.6552 10.4416L16.975 12.1218L18.4952 14.2214C18.1887 14.7383 17.9524 15.3018 17.7997 15.8988L15.2407 16.3085V18.6845L17.7996 19.0941C17.9523 19.691 18.1886 20.2546 18.4951 20.7715L16.9748 22.8711L18.655 24.5513L20.7546 23.0311C21.2715 23.3377 21.8351 23.574 22.432 23.7267L22.8416 26.2855H25.2176L25.6271 23.7266C26.2241 23.5739 26.7877 23.3377 27.3046 23.0311L29.4043 24.5514L31.0845 22.8713L29.5642 20.7716C29.8707 20.2547 30.1071 19.6911 30.2598 19.0942L32.8186 18.6846V16.3086L30.2597 15.8991C30.107 15.3021 29.8707 14.7386 29.5642 14.2216L31.0845 12.122L29.4043 10.4419L27.3047 11.9621C26.788 11.6554 26.2245 11.419 25.6275 11.2663ZM24.0299 13.9857C22.0909 13.9857 20.5192 15.5576 20.5192 17.4966C20.5192 19.4354 22.091 21.0073 24.0299 21.0073C25.9688 21.0073 27.5406 19.4354 27.5406 17.4966C27.5406 15.5576 25.9688 13.9857 24.0299 13.9857ZM13.1013 40.5027H18.8425C19.3602 40.5027 19.78 40.0829 19.78 39.5652C19.78 39.0475 19.3602 38.6277 18.8425 38.6277H13.1013C12.5836 38.6277 12.1638 39.0475 12.1638 39.5652C12.1638 40.0829 12.5836 40.5027 13.1013 40.5027ZM13.1013 34.0061H18.8425C19.3602 34.0061 19.78 33.5863 19.78 33.0686C19.78 32.5508 19.3602 32.1311 18.8425 32.1311H13.1013C12.5836 32.1311 12.1638 32.5508 12.1638 33.0686C12.1638 33.5863 12.5836 34.0061 13.1013 34.0061Z" fill="#003A65"/>
<path fill-rule="evenodd" clip-rule="evenodd" d="M6.95039 3H34.6056V8.41805C34.6056 9.71461 35.6592 10.7682 36.9558 10.7682H42.3738V27.9567C40.3167 26.7655 37.9282 26.0832 35.3803 26.0832C27.6612 26.0832 21.4024 32.342 21.4024 40.0611C21.4024 44.0231 23.0516 47.6 25.7005 50.1437H6.95039C6.42691 50.1437 6 49.7167 6 49.1932V3.95039C5.99988 3.42691 6.4268 3 6.95039 3ZM36.4805 3.08238V8.41805C36.4805 8.67973 36.694 8.89324 36.9557 8.89324H42.2913C42.2453 8.79234 42.1799 8.69941 42.0954 8.6148L36.7588 3.27832C36.6743 3.19383 36.5814 3.12844 36.4805 3.08238ZM25.6275 11.2663L25.2179 8.70738H22.842L22.4324 11.2663C21.8353 11.4189 21.2719 11.6552 20.7548 11.9618L18.6552 10.4416L16.975 12.1218L18.4952 14.2214C18.1887 14.7383 17.9524 15.3018 17.7997 15.8988L15.2407 16.3085V18.6845L17.7996 19.0941C17.9523 19.691 18.1886 20.2546 18.4951 20.7715L16.9748 22.8711L18.655 24.5513L20.7546 23.0311C21.2715 23.3377 21.8351 23.574 22.432 23.7267L22.8416 26.2855H25.2176L25.6271 23.7266C26.2241 23.5739 26.7877 23.3377 27.3046 23.0311L29.4043 24.5514L31.0845 22.8713L29.5642 20.7716C29.8707 20.2547 30.1071 19.6911 30.2598 19.0942L32.8186 18.6846V16.3086L30.2597 15.8991C30.107 15.3021 29.8707 14.7386 29.5642 14.2216L31.0845 12.122L29.4043 10.4419L27.3047 11.9621C26.788 11.6554 26.2245 11.419 25.6275 11.2663ZM24.0299 13.9857C22.0909 13.9857 20.5192 15.5576 20.5192 17.4966C20.5192 19.4354 22.091 21.0073 24.0299 21.0073C25.9688 21.0073 27.5406 19.4354 27.5406 17.4966C27.5406 15.5576 25.9688 13.9857 24.0299 13.9857ZM13.1013 40.5027H18.8425C19.3602 40.5027 19.78 40.0829 19.78 39.5652C19.78 39.0475 19.3602 38.6277 18.8425 38.6277H13.1013C12.5836 38.6277 12.1638 39.0475 12.1638 39.5652C12.1638 40.0829 12.5836 40.5027 13.1013 40.5027ZM13.1013 34.0061H18.8425C19.3602 34.0061 19.78 33.5863 19.78 33.0686C19.78 32.5508 19.3602 32.1311 18.8425 32.1311H13.1013C12.5836 32.1311 12.1638 32.5508 12.1638 33.0686C12.1638 33.5863 12.5836 34.0061 13.1013 34.0061Z" fill="#003A65"/>
<path fill-rule="evenodd" clip-rule="evenodd" d="M35.9837 28.1641C29.2995 28.1641 23.8809 33.5827 23.8809 40.267C23.8809 46.9511 29.2995 52.3697 35.9837 52.3697C38.9895 52.3697 42.8809 50.1641 42.8809 50.1641L43.7789 51.2148L50.4253 57.6641C50.8596 58.0855 51.5597 58.075 51.9812 57.6407L54.3809 55.1677C54.8023 54.7334 54.7916 54.0335 54.3574 53.612L46.8809 46.6641C46.8809 46.6641 48.0868 42.8445 48.0868 40.2671C48.0865 33.5827 42.6679 28.1641 35.9837 28.1641ZM35.9837 31.5763C31.1841 31.5763 27.2931 35.4672 27.2931 40.2668C27.2931 45.0665 31.184 48.9573 35.9837 48.9573C40.7834 48.9573 44.6743 45.0665 44.6743 40.2668C44.6743 35.4673 40.7834 31.5763 35.9837 31.5763Z" fill="#4DB4FF"/>
</svg>
