<svg width="60" height="60" viewBox="0 0 60 60" fill="none" xmlns="http://www.w3.org/2000/svg">
<g clip-path="url(#clip0_259_1721)">
<path d="M31.7574 6.22656L12.9297 17.0972L20.5855 21.5174L39.4136 10.647L31.7574 6.22656Z" fill="#003A65"/>
<path d="M28.2422 4.19727L21.4649 0.284375C20.921 -0.0296875 20.2509 -0.0296875 19.7071 0.284375L1.75781 10.6474L9.41449 15.0679L28.2422 4.19727Z" fill="#003A65"/>
<path d="M41.1719 26.7916V13.6914L22.3438 24.5618V46.3026L26.3877 43.9678C26.8488 35.4684 33.0492 28.4703 41.1719 26.7916Z" fill="#003A65"/>
<path d="M11.1718 20.1415V22.5321C11.0854 24.862 7.74188 24.8602 7.65621 22.5321V18.1118L0 13.6914V34.4173C0 35.0453 0.335039 35.6256 0.878906 35.9396L18.8282 46.3026V24.5618L11.1718 20.1415Z" fill="#003A65"/>
<path d="M44.9376 29.9238C36.632 29.9238 29.875 36.6809 29.875 44.9864C30.6323 64.9413 59.2458 64.9359 60 44.9862C60 36.6809 53.243 29.9238 44.9376 29.9238ZM46.6954 53.0455V53.4589C46.6089 55.7888 43.2654 55.787 43.1798 53.4589V53.1052C42.1227 52.8231 41.3185 52.326 40.8704 51.8777C40.1727 51.2025 40.1547 50.0897 40.8298 49.3922C41.505 48.6946 42.6179 48.6765 43.3154 49.3516C44.4327 50.1988 46.8473 50.0004 46.9454 47.8106C46.9454 47.642 46.9454 47.565 46.6407 47.3873C46.1509 47.1016 45.3174 46.8933 44.5111 46.6917C43.4661 46.4305 42.3854 46.1603 41.4629 45.6223C37.5558 43.2512 39.7683 37.9686 43.1796 36.9272V36.5138C43.2661 34.1839 46.6096 34.1857 46.6953 36.5138V36.8675C47.7523 37.1496 48.5566 37.6467 49.0047 38.095C49.7023 38.7702 49.7204 39.883 49.0452 40.5805C48.37 41.2781 47.2572 41.2962 46.5597 40.6211C45.4423 39.7739 43.0278 39.9723 42.9297 42.1621C42.9297 42.3307 42.9297 42.4077 43.2344 42.5854C43.7241 42.8711 44.5577 43.0794 45.3639 43.281C46.409 43.5422 47.4897 43.8124 48.4122 44.3504C52.3192 46.7216 50.1067 52.0042 46.6954 53.0455Z" fill="#4DB4FF"/>
</g>
<defs>
<clipPath id="clip0_259_1721">
<rect width="60" height="60" fill="white"/>
</clipPath>
</defs>
</svg>
