<svg width="60" height="60" viewBox="0 0 60 60" fill="none" xmlns="http://www.w3.org/2000/svg">
<path d="M45.0763 17.0422H33.9258V5.89062L45.0763 17.0422Z" fill="#003A65"/>
<path d="M32.403 20.0902C31.562 20.0902 30.8795 19.4077 30.8795 18.5667V5H5.52344C4.6825 5 4 5.6825 4 6.52344V55.4766C4 56.3175 4.6825 57 5.52344 57H35.6337C32.209 54.3411 30.001 50.1852 30.001 45.5245C30.001 37.5163 36.5163 31.001 44.5245 31.001C45.012 31.001 45.4934 31.0254 45.9687 31.0721V20.0902H32.403ZM20.2104 39.7344H11.6172C10.7762 39.7344 10.0938 39.0519 10.0938 38.2109C10.0938 37.37 10.7762 36.6875 11.6172 36.6875H20.2104C21.0523 36.6875 21.7338 37.37 21.7338 38.2109C21.7338 39.0519 21.0523 39.7344 20.2104 39.7344ZM27.3695 32.625H11.6172C10.7762 32.625 10.0938 31.9425 10.0938 31.1016C10.0938 30.2606 10.7762 29.5781 11.6172 29.5781H27.3695C28.2105 29.5781 28.893 30.2606 28.893 31.1016C28.893 31.9425 28.2105 32.625 27.3695 32.625ZM27.3695 25.5156H11.6172C10.7762 25.5156 10.0938 24.8331 10.0938 23.9922C10.0938 23.1513 10.7762 22.4688 11.6172 22.4688H27.3695C28.2105 22.4688 28.893 23.1513 28.893 23.9922C28.893 24.8331 28.2105 25.5156 27.3695 25.5156Z" fill="#003A65"/>
<path d="M29 5H45C46.6569 5 48 6.34315 48 8V54C48 55.6569 46.6569 57 45 57H32C30.3431 57 29 55.6569 29 54V5Z" fill="#003A65"/>
<rect x="30" y="3" width="27" height="27" rx="13.5" fill="#FBFCFF"/>
<path d="M43.4995 5C37.1579 5 32 10.1579 32 16.4995C32 22.8411 37.1579 28 43.4995 28C49.8411 28 55 22.8411 55 16.4995C55 10.1579 49.8411 5 43.4995 5ZM49.4228 14.4681L43.2003 20.6906C42.9021 20.9888 42.5113 21.1384 42.1204 21.1384C41.7296 21.1384 41.3388 20.9888 41.0416 20.6906L37.5762 17.2262C36.9808 16.6308 36.9808 15.6639 37.5762 15.0675C38.1726 14.4711 39.1395 14.4711 39.7359 15.0675L42.1204 17.4531L43.8323 15.7413L47.2641 12.3094C47.8605 11.713 48.8264 11.713 49.4228 12.3094C50.0192 12.9058 50.0192 13.8717 49.4228 14.4681Z" fill="#4DB4FF"/>
</svg>
