<svg width="60" height="60" viewBox="0 0 60 60" fill="none" xmlns="http://www.w3.org/2000/svg">
<g clip-path="url(#clip0_259_1835)">
<path d="M24.2261 21.4738L28.3585 14.5835L3.71589 7.68359L0.421259 13.1939C-0.412693 14.5816 0.0360491 16.3826 1.42371 17.2165C1.64858 17.3516 1.89041 17.456 2.14303 17.5268L20.924 22.7885C22.1952 23.144 23.5471 22.6057 24.2261 21.4738Z" fill="#003A65"/>
<path d="M5.06512 39.2152L13.928 41.6356V31.0725C13.928 28.7056 15.8467 26.7868 18.2136 26.7868H28.9278V17.8008L26.0628 22.5772C24.8854 24.5347 22.5461 25.4654 20.3457 24.8518L4.28516 20.3581V38.1867C4.28616 38.6653 4.60457 39.085 5.06512 39.2152Z" fill="#003A65"/>
<path d="M29.999 12.8177L52.8418 6.42248L30.5732 0.079572C30.1967 -0.026524 29.798 -0.026524 29.4215 0.079572L7.15625 6.42248L29.999 12.8177Z" fill="#003A65"/>
<path d="M54.9374 39.2155C55.3962 39.0838 55.7126 38.6643 55.7131 38.1869V20.3584L39.6524 24.8584C39.2093 24.9833 38.751 25.0463 38.2906 25.0458C36.5071 25.0454 34.8541 24.1103 33.9353 22.5815L31.0703 17.8008V26.7868H41.7845C44.1514 26.7868 46.0702 28.7056 46.0702 31.0725V41.6356L54.9374 39.2155Z" fill="#003A65"/>
<path d="M35.7747 21.4739C36.4545 22.605 37.8058 23.143 39.0769 22.7885L57.8579 17.5268C59.4167 17.0895 60.3259 15.4713 59.8885 13.9125C59.818 13.661 59.7141 13.4201 59.5798 13.1961L56.2873 7.68359L31.6445 14.5836L35.7747 21.4739Z" fill="#003A65"/>
<path d="M43.9293 57.8581V31.0726C43.9293 29.8891 42.9699 28.9297 41.7864 28.9297H18.2152C17.0317 28.9297 16.0723 29.8891 16.0723 31.0726V57.8581C16.0723 59.0416 17.0317 60.001 18.2152 60.001H41.7864C42.9699 60.001 43.9293 59.0416 43.9293 57.8581ZM25.4012 53.2584L22.1869 56.4727C21.7686 56.891 21.0903 56.891 20.6719 56.4727L19.6006 55.4013C19.1895 54.9757 19.2013 54.2974 19.6268 53.8864C20.042 53.4853 20.7003 53.4853 21.1155 53.8864L21.4294 54.2003L23.8862 51.7435C24.3118 51.3324 24.9901 51.3442 25.4012 51.7697C25.8022 52.1851 25.8022 52.8434 25.4012 53.2584ZM25.4012 46.8299L22.1869 50.0442C21.7686 50.4624 21.0903 50.4624 20.6719 50.0442L19.6006 48.9728C19.1895 48.5472 19.2013 47.8689 19.6268 47.4578C20.042 47.0568 20.7003 47.0568 21.1155 47.4578L21.4294 47.7717L23.8862 45.3149C24.3118 44.9039 24.9901 44.9157 25.4012 45.3412C25.8022 45.7565 25.8022 46.4148 25.4012 46.8299ZM25.4012 40.4014L22.1869 43.6156C21.7686 44.0339 21.0903 44.0339 20.6719 43.6156L19.6006 42.5443C19.1895 42.1186 19.2013 41.4404 19.6268 41.0293C20.042 40.6283 20.7003 40.6283 21.1155 41.0293L21.4294 41.3432L23.8862 38.8864C24.3118 38.4753 24.9901 38.4871 25.4012 38.9126C25.8022 39.328 25.8022 39.9863 25.4012 40.4014ZM25.4012 33.9728L22.1869 37.1871C21.7686 37.6053 21.0903 37.6053 20.6719 37.1871L19.6006 36.1157C19.1895 35.6901 19.2013 35.0118 19.6268 34.6007C20.042 34.1997 20.7003 34.1997 21.1155 34.6007L21.4294 34.9146L23.8862 32.4579C24.3118 32.0468 24.9901 32.0586 25.4012 32.4841C25.8022 32.8994 25.8022 33.5577 25.4012 33.9728ZM39.6437 55.7152H28.9295C28.3377 55.7152 27.8581 55.2356 27.8581 54.6438C27.8581 54.0521 28.3378 53.5725 28.9295 53.5725H39.6437C40.2354 53.5725 40.715 54.0521 40.715 54.6438C40.715 55.2356 40.2353 55.7152 39.6437 55.7152ZM39.6437 49.2867H28.9295C28.3377 49.2867 27.8581 48.8069 27.8581 48.2153C27.8581 47.6236 28.3378 47.1439 28.9295 47.1439H39.6437C40.2354 47.1439 40.715 47.6237 40.715 48.2153C40.715 48.8071 40.2353 49.2867 39.6437 49.2867ZM39.6437 42.8581H28.9295C28.3377 42.8581 27.8581 42.3785 27.8581 41.7868C27.8581 41.195 28.3378 40.7154 28.9295 40.7154H39.6437C40.2354 40.7154 40.715 41.195 40.715 41.7868C40.715 42.3785 40.2353 42.8581 39.6437 42.8581ZM39.6437 36.4296H28.9295C28.3377 36.4296 27.8581 35.95 27.8581 35.3582C27.8581 34.7665 28.3378 34.2868 28.9295 34.2868H39.6437C40.2354 34.2868 40.715 34.7665 40.715 35.3582C40.715 35.95 40.2353 36.4296 39.6437 36.4296Z" fill="#4DB4FF"/>
</g>
<defs>
<clipPath id="clip0_259_1835">
<rect width="60" height="60" fill="white"/>
</clipPath>
</defs>
</svg>
